<?xml version="1.0" encoding="UTF-8" standalone="no"?>
<!-- Generator: Adobe Illustrator 25.2.3, SVG Export Plug-In . SVG Version: 6.00 Build 0)  -->

<svg
   version="1.1"
   id="Layer_2"
   x="0px"
   y="0px"
   viewBox="0 0 128 112"
   xml:space="preserve"
   sodipodi:docname="bmf.svg"
   inkscape:version="1.2.2 (b0a8486541, 2022-12-01)"
   width="128"
   height="112"
   xmlns:inkscape="http://www.inkscape.org/namespaces/inkscape"
   xmlns:sodipodi="http://sodipodi.sourceforge.net/DTD/sodipodi-0.dtd"
   xmlns="http://www.w3.org/2000/svg"
   xmlns:svg="http://www.w3.org/2000/svg"><defs
   id="defs49"><linearGradient
     id="linearGradient4253"
     inkscape:swatch="solid"><stop
       style="stop-color:#000000;stop-opacity:1;"
       offset="0"
       id="stop4251" /></linearGradient></defs><sodipodi:namedview
   id="namedview47"
   pagecolor="#ffffff"
   bordercolor="#000000"
   borderopacity="0.25"
   inkscape:showpageshadow="2"
   inkscape:pageopacity="0.0"
   inkscape:pagecheckerboard="0"
   inkscape:deskcolor="#d1d1d1"
   showgrid="false"
   inkscape:zoom="5.6568543"
   inkscape:cx="62.755726"
   inkscape:cy="63.727998"
   inkscape:window-width="1920"
   inkscape:window-height="999"
   inkscape:window-x="0"
   inkscape:window-y="0"
   inkscape:window-maximized="1"
   inkscape:current-layer="Layer_2" />
<path
   style="fill:#f276c6;fill-opacity:1"
   d="M 97.23,57 63.93,63.86 6.35,62.48 C 6.35,62.48 3.22,79.13 14.77,94.41 24.18,106.85 41.37,112.1 67.49,111.68 94.4,111.25 111.32,101.12 118.05,87.32 126.08,70.87 117.79,50.92 117.79,50.92 Z"
   id="path2" />
<path
   style="fill:#ec35ab;fill-opacity:1"
   d="M 41.53,43.69 43.63,62.11 50.43,59.02 C 50.43,59.02 52.41,54.55 64.28,54.32 77.01,54.07 79.24,58.4 79.24,58.4 79.24,58.4 95.31,48.76 94.57,47.89 93.83,47.02 70.96,36.15 70.96,36.15 70.96,36.15 41.78,43.31 41.53,43.69 Z"
   id="path4" />
<path
   style="fill:#90195f;fill-opacity:1;fill-rule:evenodd"
   d="M 115.09,38.25 C 107.85,29.47 94.32,17.73 61.19,17.73 39.55,17.73 27.07,25.4 17.92,33.8 8.77,42.2 0.9,58.55 4.57,66.06 7.04,71.13 9.39,70.14 11.62,74.34 13.85,78.54 15.7,83.74 21.26,87.07 26.82,90.4 33.25,90.9 37.33,92.51 41.41,94.12 48.95,99.06 60.33,99.31 71.83,99.56 78.01,95.23 84.44,93.62 90.87,92.01 99.52,91.77 106.2,88.3 112.88,84.84 113.37,78.9 116.83,75.07 120.29,71.24 123.14,69.26 123.88,65.67 124.62,62.08 122.63,47.39 115.09,38.25 Z M 63.29,60.01 C 53.89,60.13 46.28,57.96 46.48,52.47 46.73,45.29 59.95,44.03 64.16,43.94 69.72,43.82 81.8,44.89 82.15,51.4 82.48,57.77 72.69,59.88 63.29,60.01 Z"
   id="path6" />
<path
   style="fill:#00ffff;fill-opacity:1"
   d="M 59.339047,25.852107 C 61.099047,27.362107 63.119047,26.062107 64.479047,24.282107 65.839047,22.502107 65.759047,20.282107 64.619047,19.432107 63.479047,18.572107 61.619047,18.862107 59.839047,20.932107 58.719047,22.232107 57.839047,24.572107 59.339047,25.852107 Z"
   id="path8" />
<path
   style="fill:#00ffff;fill-opacity:1"
   d="M 69.41,34.15 C 70.8,35.82 74.05,34.15 76.76,32.15 79.47,30.15 81.71,28.27 80.26,26.01 78.48,23.23 73.91,27.01 72.55,27.94 71.19,28.87 67.27,31.58 69.41,34.15 Z"
   id="path10" /><path
   style="fill:#c601c6;fill-opacity:1"
   d="M 38.628154,68.209224 C 40.018154,69.879224 43.268154,68.209224 45.978154,66.209224 48.688154,64.209224 50.928154,62.329224 49.478154,60.069224 47.698154,57.289224 43.128154,61.069224 41.768154,61.999224 40.408154,62.929224 36.488154,65.639224 38.628154,68.209224 Z"
   id="path10-3" />
<path
   style="fill:#00ff00;fill-opacity:1"
   d="M 83.76,31.08 C 84.25,33.45 87.04,33.36 90.47,32.44 93.9,31.51 96.06,30.74 95.45,28.2 94.78,25.42 90.47,26.87 88.47,27.3 86.47,27.73 83.22,28.47 83.76,31.08 Z"
   id="path12" />
<path
   style="fill:#00ff00;fill-opacity:1"
   d="M 96.47,36.82 C 95.44,38.19 95.6,39.93 98.67,42 101.74,44.07 103.39,44.13 104.45,42.57 105.66,40.79 103.81,39.11 101.95,37.68 100.1,36.25 97.53,35.41 96.47,36.82 Z"
   id="path14" />
<path
   style="fill:#00ff00;fill-opacity:1"
   d="M 89.75,45.21 C 88.68,47.06 90.75,48.76 93.75,50.71 96.61,52.57 98.92,54.41 100.39,51.78 101.75,49.35 98.18,47.43 96.32,46.36 94.46,45.29 91.32,42.5 89.75,45.21 Z"
   id="path16" /><path
   style="fill:#ffff00;fill-opacity:1"
   d="M 86.478304,59.398042 C 85.408304,61.248042 87.478304,62.948042 90.478304,64.898042 93.338304,66.758042 95.648304,68.598042 97.118304,65.968042 98.478304,63.538042 94.908304,61.618042 93.048304,60.548042 91.188304,59.478042 88.048304,56.688042 86.478304,59.398042 Z"
   id="path16-6" />
<path
   style="fill:#ffff00;fill-opacity:1"
   d="M 110.72,54.72 C 108.67,53.17 106.19,55.57 104.1,58.42 102.01,61.27 99.32,64.55 101.41,66.19 103.81,68.07 106.15,65.28 108.4,62.35 110.63,59.43 112.6,56.14 110.72,54.72 Z"
   id="path18" />
<path
   style="fill:#ffff00;fill-opacity:1"
   d="M 110.17,68.55 C 111.42,70.43 113.96,69.17 116.45,67.62 118.94,66.07 120.65,63.92 119.52,61.91 118.39,59.9 115.26,62.11 113.6,63.19 111.93,64.29 108.88,66.62 110.17,68.55 Z"
   id="path20" />
<path
   style="fill:#6666ff;fill-opacity:1"
   d="M 29.51,48.01 C 25.61,51.52 24.47,53.73 26.05,55.42 27.63,57.11 30.42,55.38 34.22,51.84 38.02,48.3 38.97,46.26 37.42,44.61 35.6,42.7 32.1,45.68 29.51,48.01 Z"
   id="path22" />
<path
   style="fill:#00ffff;fill-opacity:1"
   d="M 44.89,25.95 C 43.2,26.72 43.25,28.99 45.58,31.94 47.88,34.86 48.88,36.86 51.04,35.55 53.19,34.24 51.27,30.86 49.73,28.94 48.19,27.02 46.58,25.18 44.89,25.95 Z"
   id="path24" /><path
   id="path6-3"
   style="fill:#f4900c;fill-opacity:1;fill-rule:evenodd"
   d="M 47.995928,17.587919 C 47.218218,17.451403 46.418108,17.629126 45.771328,18.082059 L 42.458828,20.400419 C 41.112298,21.34474 40.785378,23.201391 41.728358,24.548856 L 66.472498,59.8887 C 70.455828,59.631051 74.281828,58.969646 77.165858,57.724638 L 49.919758,18.812528 C 49.466218,18.165389 48.774208,17.724892 47.995928,17.587919 Z"
   sodipodi:nodetypes="cccccccc" />
<path
   style="fill:#a900ff;fill-opacity:1"
   d="M 18.23,47.46 C 16.47,46.08 14.77,47.54 12.16,50.38 9.55,53.22 9.05,55.26 10.78,56.76 12.55,58.3 14.99,55.05 16.24,53.61 17.77,51.84 20.38,49.15 18.23,47.46 Z"
   id="path26" />
<path
   style="fill:#c601c6;fill-opacity:1"
   d="M 24.38,65.82 C 23.62,68.43 26.15,68.97 28.84,69.58 31.53,70.19 34.99,70.81 35.45,68.5 35.91,66.2 33.68,65.2 30.61,64.74 27.54,64.28 25.07,63.44 24.38,65.82 Z"
   id="path28" />
<path
   style="fill:#6666ff;fill-opacity:1"
   d="M 20.61,37.01 C 18.39,38.25 19.84,41.31 20.53,43.08 21.22,44.85 22.45,47.23 24.53,46 26.61,44.77 25.24,41.84 24.61,40.31 23.84,38.47 22.69,35.86 20.61,37.01 Z"
   id="path30" />
<path
   style="fill:#c601c6;fill-opacity:1"
   d="M 43.72,71.92 C 41.45,73.05 43.15,76.29 44.93,79.37 46.71,82.45 47.28,84.23 49.63,83.09 51.98,81.96 50.03,78.48 48.82,76.13 47.6,73.78 45.98,70.79 43.72,71.92 Z"
   id="path32" />
<path
   style="fill:#ff0202;fill-opacity:1"
   d="M 74.16,65.13 C 71.6,67.07 68.32,69.05 69.86,71.58 71.4,74.12 75.39,71.04 77.24,69.74 79.08,68.43 83,65.98 81.54,63.67 80.08,61.37 76.39,63.44 74.16,65.13 Z"
   id="path34" />
<path
   style="fill:#ff0202;fill-opacity:1"
   d="M 82.23,76.5 C 82.23,79.34 84.46,79.04 87.84,79.34 91.22,79.65 94.23,79.73 94.14,76.96 94.06,74.5 91.22,74.42 88.3,74.35 85.83,74.29 82.23,73.64 82.23,76.5 Z"
   id="path36" /><path
   style="fill:#00ffff;fill-opacity:1"
   d="M 28.004662,33.706332 C 28.004662,36.546332 30.234662,36.246332 33.614662,36.546332 36.994662,36.856332 40.004662,36.936332 39.914662,34.166332 39.834662,31.706332 36.994662,31.626332 34.074662,31.556332 31.604662,31.496332 28.004662,30.846332 28.004662,33.706332 Z"
   id="path36-5" />
<path
   style="fill:#ff0202;fill-opacity:1"
   d="M 68.86,79.42 C 64.6,78.76 62.02,78.34 61.41,80.57 60.8,82.8 62.64,83.87 67.17,84.64 71.7,85.41 73.93,85.41 74.39,83.1 74.85,80.81 71.86,79.88 68.86,79.42 Z"
   id="path38" />
<path
   style="fill:#70134a;fill-opacity:1"
   d="M 92.7,86.98 C 92.85,89.47 96.28,89.59 100.53,88.07 104.78,86.55 106.96,84.39 105.51,82.49 103.75,80.18 99.32,83.7 97.98,84.07 96.64,84.43 92.52,84.01 92.7,86.98 Z"
   id="path40" />
<path
   style="fill:#70134a;fill-opacity:1"
   d="M 59.44,91.53 C 63.14,91.78 68.97,90.07 69.27,93.17 69.57,96.27 63.75,97.18 57.25,96.51 50.79,95.85 46.87,94.51 47.23,91.23 47.6,87.95 52.21,91.05 59.44,91.53 Z"
   id="path42" />
<path
   style="fill:#70134a;fill-opacity:1"
   d="M 9.85,65.25 C 9.1,66.6 9.91,67.86 11.12,68.71 12.33,69.56 13.79,70.83 15.37,73.32 16.95,75.81 18.11,79.8 21.56,82.97 25.2,86.31 28.72,86.25 30.79,86.92 32.86,87.59 36.05,88.72 37.83,88.68 40.62,88.62 40.14,86.13 38.92,84.98 37.7,83.83 34.37,82.73 31.33,81.64 29.31,80.91 27.11,79.94 23.44,75.21 20.71,71.69 19.19,69.75 16.16,67.44 14.14,65.9 10.82,63.49 9.85,65.25 Z"
   id="path44" />
<g
   id="SVGRepo_bgCarrier"
   stroke-width="0"
   transform="matrix(1.9696156,0.34729636,-0.34729636,1.9696156,41.439108,12.943828)" /><g
   id="SVGRepo_tracerCarrier"
   stroke-linecap="round"
   stroke-linejoin="round"
   transform="matrix(1.9696156,0.34729636,-0.34729636,1.9696156,41.439108,12.943828)" /><path
   fill="#66757f"
   d="M 62.226981,27.796638 56.49046,19.604038 A 3.0000001,3.0000001 0 0 0 52.312905,18.867422 L 44.122274,24.60429 C 39.204388,27.985679 35.492155,29.20559 31.134914,28.520556 30.251812,31.559374 30.641198,38.979722 32.698932,42.305571 35.373048,46.627587 40.784331,48.798224 46.073201,49.647529 46.629933,44.94679 48.469667,41.089657 53.298112,37.708744 L 61.488743,31.971876 A 2.9940001,2.9940001 0 0 0 62.226981,27.796638 Z"
   id="path68270"
   style="fill:#a7bec3;fill-opacity:1;stroke-width:2" /><path
   fill="#ccd6dd"
   d="M -61.292478,29.93519 C -62.776522,29.701945 -64.332195,29.252985 -66.038396,28.586582 -69.150031,38.09064 -56.531632,56.111581 -46.536497,56.43818 -46.591216,54.525622 -46.550798,52.741536 -46.352222,51.06251 -54.564643,46.752967 -60.558408,38.257089 -61.292478,29.93519 Z"
   id="path68272"
   style="stroke-width:2" /></svg>
