<?xml version="1.0" encoding="UTF-8" standalone="no"?>
<!-- Generator: Adobe Illustrator 25.2.3, SVG Export Plug-In . SVG Version: 6.00 Build 0)  -->

<svg
   version="1.1"
   id="Layer_2"
   x="0px"
   y="0px"
   viewBox="0 0 128 112"
   xml:space="preserve"
   sodipodi:docname="clam.svg"
   inkscape:version="1.2.2 (b0a8486541, 2022-12-01)"
   width="128"
   height="112"
   xmlns:inkscape="http://www.inkscape.org/namespaces/inkscape"
   xmlns:sodipodi="http://sodipodi.sourceforge.net/DTD/sodipodi-0.dtd"
   xmlns="http://www.w3.org/2000/svg"
   xmlns:svg="http://www.w3.org/2000/svg"><defs
   id="defs49" /><sodipodi:namedview
   id="namedview47"
   pagecolor="#ffffff"
   bordercolor="#000000"
   borderopacity="0.25"
   inkscape:showpageshadow="2"
   inkscape:pageopacity="0.0"
   inkscape:pagecheckerboard="0"
   inkscape:deskcolor="#d1d1d1"
   showgrid="false"
   showguides="false"
   inkscape:zoom="6.0546875"
   inkscape:cx="64.247742"
   inkscape:cy="64.330323"
   inkscape:window-width="1920"
   inkscape:window-height="999"
   inkscape:window-x="0"
   inkscape:window-y="0"
   inkscape:window-maximized="1"
   inkscape:current-layer="Layer_2" />
<path
   style="fill:#2b0000;fill-opacity:1"
   d="M 97.23,57 63.93,63.86 6.35,62.48 C 6.35,62.48 3.22,79.13 14.77,94.41 24.18,106.85 41.37,112.1 67.49,111.68 94.4,111.25 111.32,101.12 118.05,87.32 126.08,70.87 117.79,50.92 117.79,50.92 Z"
   id="path2" />
<path
   style="fill:#000000;fill-opacity:1;stroke-width:1.18049"
   d="M 41.53,46.65743 43.63,72.326774 50.43,68.020679 C 50.43,68.020679 52.41,61.791473 64.28,61.470955 77.01,61.122565 79.24,67.156673 79.24,67.156673 79.24,67.156673 95.31,53.722771 94.57,52.510375 93.83,51.297979 70.96,36.15 70.96,36.15 70.96,36.15 41.78,46.127878 41.53,46.65743 Z"
   id="path4" />
<path
   style="fill:#ff922b;fill-opacity:1"
   d="M 115.09,38.25 C 107.85,29.47 94.32,17.73 61.19,17.73 39.55,17.73 27.07,25.4 17.92,33.8 8.77,42.2 0.9,58.55 4.57,66.06 7.04,71.13 9.39,70.14 11.62,74.34 13.85,78.54 15.7,83.74 21.26,87.07 26.82,90.4 33.25,90.9 37.33,92.51 41.41,94.12 48.95,99.06 60.33,99.31 71.83,99.56 78.01,95.23 84.44,93.62 90.87,92.01 99.52,91.77 106.2,88.3 112.88,84.84 113.37,78.9 116.83,75.07 120.29,71.24 123.14,69.26 123.88,65.67 124.62,62.08 122.63,47.39 115.09,38.25 Z M 63.29,60.01 C 53.89,60.13 46.28,57.96 46.48,52.47 46.73,45.29 59.95,44.03 64.16,43.94 69.72,43.82 81.8,44.89 82.15,51.4 82.48,57.77 72.69,59.88 63.29,60.01 Z"
   id="path6" />
















<path
   style="fill:#e16e00;fill-opacity:1"
   d="M 92.7,86.98 C 92.85,89.47 96.28,89.59 100.53,88.07 104.78,86.55 106.96,84.39 105.51,82.49 103.75,80.18 99.32,83.7 97.98,84.07 96.64,84.43 92.52,84.01 92.7,86.98 Z"
   id="path40" />
<path
   style="fill:#e16e00;fill-opacity:1"
   d="M 59.44,91.53 C 63.14,91.78 68.97,90.07 69.27,93.17 69.57,96.27 63.75,97.18 57.25,96.51 50.79,95.85 46.87,94.51 47.23,91.23 47.6,87.95 52.21,91.05 59.44,91.53 Z"
   id="path42" />
<path
   style="fill:#e16e00;fill-opacity:1"
   d="M 9.85,65.25 C 9.1,66.6 9.91,67.86 11.12,68.71 12.33,69.56 13.79,70.83 15.37,73.32 16.95,75.81 18.11,79.8 21.56,82.97 25.2,86.31 28.72,86.25 30.79,86.92 32.86,87.59 36.05,88.72 37.83,88.68 40.62,88.62 40.14,86.13 38.92,84.98 37.7,83.83 34.37,82.73 31.33,81.64 29.31,80.91 27.11,79.94 23.44,75.21 20.71,71.69 19.19,69.75 16.16,67.44 14.14,65.9 10.82,63.49 9.85,65.25 Z"
   id="path44" />
<ellipse
   style="opacity:1;fill:#ffffff;fill-opacity:1;stroke:#eaff08;stroke-width:0"
   id="path5802"
   cx="24.116774"
   cy="37.000584"
   rx="3.1180646"
   ry="3.0050974" /><ellipse
   style="fill:#ffffff;fill-opacity:1;stroke:#eaff08;stroke-width:0"
   id="path5802-2"
   cx="34.813549"
   cy="45.10516"
   rx="3.1180646"
   ry="3.0050974" /><ellipse
   style="fill:#ffffff;fill-opacity:1;stroke:#eaff08;stroke-width:0"
   id="path5802-7"
   cx="24.443871"
   cy="57.145805"
   rx="3.1180646"
   ry="3.0050974" /><ellipse
   style="fill:#ffffff;fill-opacity:1;stroke:#eaff08;stroke-width:0"
   id="path5802-0"
   cx="44.263226"
   cy="77.956131"
   rx="3.1180646"
   ry="3.0050974" /><ellipse
   style="fill:#ffffff;fill-opacity:1;stroke:#eaff08;stroke-width:0"
   id="path5802-9"
   cx="44.9729"
   cy="62.421932"
   rx="3.1180646"
   ry="3.0050974" /><ellipse
   style="fill:#ffffff;fill-opacity:1;stroke:#eaff08;stroke-width:0"
   id="path5802-3"
   cx="58.632259"
   cy="82.415482"
   rx="3.1180646"
   ry="3.0050974" /><ellipse
   style="fill:#ffffff;fill-opacity:1;stroke:#eaff08;stroke-width:0"
   id="path5802-6"
   cx="67.550964"
   cy="70.523872"
   rx="3.1180646"
   ry="3.0050974" /><ellipse
   style="fill:#ffffff;fill-opacity:1;stroke:#eaff08;stroke-width:0"
   id="path5802-06"
   cx="88.691612"
   cy="79.938065"
   rx="3.1180646"
   ry="3.0050974" /><ellipse
   style="fill:#ffffff;fill-opacity:1;stroke:#eaff08;stroke-width:0"
   id="path5802-26"
   cx="112.64"
   cy="63.256775"
   rx="3.1180646"
   ry="3.0050974" /><ellipse
   style="fill:#ffffff;fill-opacity:1;stroke:#eaff08;stroke-width:0"
   id="path5802-1"
   cx="95.298065"
   cy="57.310966"
   rx="3.1180646"
   ry="3.0050974" /><ellipse
   style="fill:#ffffff;fill-opacity:1;stroke:#eaff08;stroke-width:0"
   id="path5802-8"
   cx="106.52903"
   cy="38.15226"
   rx="3.1180646"
   ry="3.0050974" /><ellipse
   style="fill:#ffffff;fill-opacity:1;stroke:#eaff08;stroke-width:0"
   id="path5802-79"
   cx="92.490326"
   cy="28.077419"
   rx="3.1180646"
   ry="3.0050974" /><ellipse
   style="fill:#ffffff;fill-opacity:1;stroke:#eaff08;stroke-width:0"
   id="path5802-20"
   cx="79.607742"
   cy="39.803871"
   rx="3.1180646"
   ry="3.0050974" /><ellipse
   style="fill:#ffffff;fill-opacity:1;stroke:#eaff08;stroke-width:0"
   id="path5802-20-2"
   cx="57.945164"
   cy="52.906452"
   rx="3.1180646"
   ry="3.0050974" /><ellipse
   style="fill:#ffffff;fill-opacity:1;stroke:#eaff08;stroke-width:0"
   id="path5802-20-8"
   cx="69.814835"
   cy="52.910969"
   rx="3.1180646"
   ry="3.0050974" /><ellipse
   style="fill:#000000;fill-opacity:1;stroke:#eaff08;stroke-width:0"
   id="path5802-20-9"
   cx="70.528381"
   cy="52.692883"
   rx="1.6406455"
   ry="1.581205" /><ellipse
   style="fill:#000000;fill-opacity:1;stroke:#eaff08;stroke-width:0"
   id="path5802-20-9-7"
   cx="59.520645"
   cy="52.760647"
   rx="1.6406455"
   ry="1.581205" /><ellipse
   style="fill:#ffffff;fill-opacity:1;stroke:#eaff08;stroke-width:0"
   id="path5802-23"
   cx="71.019356"
   cy="25.930323"
   rx="3.1180646"
   ry="3.0050974" /><ellipse
   style="fill:#ffffff;fill-opacity:1;stroke:#eaff08;stroke-width:0"
   id="path5802-75"
   cx="53.176777"
   cy="37.641289"
   rx="3.1180646"
   ry="3.0050974" /><ellipse
   style="fill:#ffffff;fill-opacity:1;stroke:#eaff08;stroke-width:0"
   id="path5802-92"
   cx="45.584518"
   cy="27.581936"
   rx="3.1180646"
   ry="3.0050974" /></svg>
