<?xml version="1.0" encoding="UTF-8" standalone="no"?>
<!-- Generator: Adobe Illustrator 25.2.3, SVG Export Plug-In . SVG Version: 6.00 Build 0)  -->

<svg
   sodipodi:docname="black_hole.svg"
   xml:space="preserve"
   viewBox="0 0 128 112"
   y="0px"
   x="0px"
   id="Layer_2"
   version="1.1"
   inkscape:version="1.2.2 (b0a8486541, 2022-12-01)"
   width="128"
   height="112"
   xmlns:inkscape="http://www.inkscape.org/namespaces/inkscape"
   xmlns:sodipodi="http://sodipodi.sourceforge.net/DTD/sodipodi-0.dtd"
   xmlns="http://www.w3.org/2000/svg"
   xmlns:svg="http://www.w3.org/2000/svg"><defs
   id="defs49"><filter
     style="color-interpolation-filters:sRGB"
     inkscape:label="Roughen"
     id="filter24221"
     x="0"
     y="0"
     width="1"
     height="1"><feTurbulence
       type="fractalNoise"
       numOctaves="5"
       seed="1"
       baseFrequency="0.013 0.013"
       result="turbulence"
       id="feTurbulence24217" /><feDisplacementMap
       in="SourceGraphic"
       in2="turbulence"
       scale="6.6"
       yChannelSelector="G"
       xChannelSelector="R"
       id="feDisplacementMap24219"
       result="fbSourceGraphic" /><feColorMatrix
       result="fbSourceGraphicAlpha"
       in="fbSourceGraphic"
       values="0 0 0 -1 0 0 0 0 -1 0 0 0 0 -1 0 0 0 0 1 0"
       id="feColorMatrix24223" /><feTurbulence
       id="feTurbulence24225"
       type="fractalNoise"
       numOctaves="5"
       seed="1"
       baseFrequency="0.013 0.013"
       result="turbulence" /><feDisplacementMap
       in2="turbulence"
       id="feDisplacementMap24227"
       in="fbSourceGraphic"
       scale="6.6"
       yChannelSelector="G"
       xChannelSelector="R" /></filter></defs><sodipodi:namedview
   id="namedview47"
   pagecolor="#ffffff"
   bordercolor="#000000"
   borderopacity="0.25"
   inkscape:showpageshadow="2"
   inkscape:pageopacity="0.0"
   inkscape:pagecheckerboard="0"
   inkscape:deskcolor="#d1d1d1"
   showgrid="false"
   inkscape:zoom="6.0546875"
   inkscape:cx="79.112258"
   inkscape:cy="74.074839"
   inkscape:window-width="1920"
   inkscape:window-height="999"
   inkscape:window-x="0"
   inkscape:window-y="0"
   inkscape:window-maximized="1"
   inkscape:current-layer="Layer_2" />





















<path
   style="fill:#5e390a;fill-opacity:1"
   d="M 97.23,57 63.93,63.86 6.35,62.48 C 6.35,62.48 3.22,79.13 14.77,94.41 24.18,106.85 41.37,112.1 67.49,111.68 94.4,111.25 111.32,101.12 118.05,87.32 126.08,70.87 117.79,50.92 117.79,50.92 Z"
   id="path2" /><path
   style="fill:#df8013"
   d="M 41.53,43.69 43.63,62.11 50.43,59.02 C 50.43,59.02 52.41,54.55 64.28,54.32 77.01,54.07 79.24,58.4 79.24,58.4 79.24,58.4 95.31,48.76 94.57,47.89 93.83,47.02 70.96,36.15 70.96,36.15 70.96,36.15 41.78,43.31 41.53,43.69 Z"
   id="path4" /><path
   style="fill:#000000"
   d="M 115.09,38.25 C 107.85,29.47 94.32,17.73 61.19,17.73 39.55,17.73 27.07,25.4 17.92,33.8 8.77,42.2 0.9,58.55 4.57,66.06 7.04,71.13 9.39,70.14 11.62,74.34 13.85,78.54 15.7,83.74 21.26,87.07 26.82,90.4 33.25,90.9 37.33,92.51 41.41,94.12 48.95,99.06 60.33,99.31 71.83,99.56 78.01,95.23 84.44,93.62 90.87,92.01 99.52,91.77 106.2,88.3 112.88,84.84 113.37,78.9 116.83,75.07 120.29,71.24 123.14,69.26 123.88,65.67 124.62,62.08 122.63,47.39 115.09,38.25 Z M 63.29,60.01 C 53.89,60.13 46.28,57.96 46.48,52.47 46.73,45.29 59.95,44.03 64.16,43.94 69.72,43.82 81.8,44.89 82.15,51.4 82.48,57.77 72.69,59.88 63.29,60.01 Z"
   id="path6" />
<path
   style="opacity:1;fill:#914bc1;fill-opacity:1;stroke:#eaff08;stroke-width:0;stroke-dasharray:none;stroke-opacity:1;filter:url(#filter24221)"
   d="M 57.64129,89.570601 C 48.892281,89.369187 39.465176,87.843911 31.683179,85.37066 25.310487,83.345309 18.513659,80.061085 13.764108,76.712172 12.638256,75.918333 12.421669,75.675549 11.802237,74.512998 10.901098,72.821743 10.148327,71.957378 8.2394796,70.422085 4.0080876,67.01876 2.8666729,62.909595 4.3979569,56.592359 L 4.7523022,55.130527 5.13258,56.592359 C 6.3923084,61.434908 9.2241687,66.003682 13.563479,70.194326 16.844904,73.363327 20.441427,75.84912 25.269677,78.285248 33.458075,82.416761 42.923606,84.885559 53.751724,85.71393 56.612463,85.932782 63.957684,85.93266 66.816018,85.713714 81.862127,84.56119 94.833195,80.090885 103.55613,73.051724 105.47017,71.507144 107.98222,68.955805 109.19775,67.321864 115.27789,59.148788 115.39956,49.672641 109.5314,41.336117 108.23197,39.490098 104.84316,36.071181 102.8129,34.557927 95.080093,28.794276 85.246372,25.348447 72.91871,24.082719 70.258617,23.809597 61.910857,23.811255 59.210323,24.085441 45.241265,25.503726 34.057892,29.929433 27.23874,36.73787 24.366016,39.606082 22.34935,42.942854 21.442851,46.327742 21.051957,47.787348 21.000993,48.276966 21.00447,50.539355 21.007884,52.761801 21.064815,53.311485 21.436233,54.708138 24.031681,64.467874 34.92338,72.142891 49.844832,74.726734 56.136937,75.816293 64.299076,75.784251 70.864328,74.644221 78.530793,73.312968 85.536917,70.318192 90.184081,66.385973 94.975338,62.331828 97.192393,57.135601 96.303771,52.042942 94.804163,43.448746 85.361989,36.812126 72.175484,35.083893 69.525051,34.736525 63.87897,34.692259 61.198222,34.997829 51.851229,36.063263 43.909303,39.971787 40.897704,44.988485 39.600085,47.150047 39.092267,49.86876 39.54543,52.228179 39.810466,53.608101 40.826008,55.665271 41.878711,56.954675 44.26566,59.878329 48.815509,62.290402 53.816956,63.283659 55.837518,63.68493 59.614309,63.880161 62.100645,63.711861 66.92135,63.385549 71.36016,61.831495 73.805877,59.613792 74.526433,58.960414 75.127375,58.586193 75.891613,58.314958 78.753026,57.299416 80.86971,55.754509 81.679806,54.090323 82.288917,52.839019 82.340861,50.864604 81.795979,49.674425 80.744981,47.378746 78.315459,45.867408 74.025728,44.84077 68.890659,43.611823 61.637508,43.615346 56.169584,44.849443 55.178468,45.073135 54.33806,45.226661 54.30201,45.190613 54.199015,45.087618 55.070629,44.516646 56.154839,43.976871 60.272488,41.926899 66.555286,41.289408 71.90911,42.378351 81.184852,44.264991 86.719343,50.719992 84.507845,57.072538 83.919312,58.763104 83.069159,60.062251 81.595769,61.522581 78.072436,65.014682 72.40819,67.385319 65.156129,68.403003 63.103394,68.691066 56.347952,68.68905 54.255484,68.399751 41.946627,66.697964 33.136607,60.586385 31.524684,52.631222 30.868668,49.393649 31.720803,45.694347 33.832701,42.611613 34.613066,41.472515 37.018905,39.042527 38.4,37.998466 41.675872,35.522019 45.573829,33.627622 50.126452,32.299437 67.171733,27.32664 87.387493,31.031375 97.375001,40.958193 99.328963,42.900282 100.52107,44.496633 101.56981,46.575484 105.9996,55.356347 102.43753,64.669222 92.077419,71.39296 77.924349,80.578335 53.626872,82.30148 35.864194,75.379525 22.149348,70.034975 13.956129,60.714319 13.956129,50.456774 13.956129,37.993363 26.202418,26.982743 45.440013,22.149658 56.135972,19.462499 68.774025,19.004291 79.976035,20.897511 99.645584,24.221806 114.34477,33.939643 118.72105,46.512386 119.69664,49.315176 119.89987,50.589027 119.90369,53.925161 119.90627,56.178756 119.8347,57.237739 119.60788,58.301935 117.65046,67.485944 110.48448,75.401046 98.849032,81.230896 90.620213,85.353883 80.895589,88.015755 70.110968,89.097223 67.792779,89.329687 60.310142,89.723384 59.705806,89.644688 59.569548,89.626944 58.640516,89.593605 57.64129,89.570601 Z"
   id="path17519" /><path
   style="opacity:1;fill:#5e390a;fill-opacity:1;stroke:#eaff08;stroke-width:0;stroke-dasharray:none;stroke-opacity:1"
   d="M 50.602876,58.030092 C 48.277409,56.959993 46.910779,55.454056 46.567644,53.583527 46.502791,53.229999 46.479791,52.46429 46.522674,52.086432 46.685332,50.653191 47.313532,49.477088 48.508304,48.368977 50.507008,46.515246 54.115817,45.147163 58.915706,44.423578 61.731202,43.999141 64.439734,43.859587 67.137736,43.999946 73.107503,44.310514 77.700197,45.586208 80.101056,47.600714 81.512811,48.785286 82.206863,50.256089 82.135337,51.911674 82.044979,54.003216 80.853297,55.699888 78.548772,57.018094 78.377489,57.11607 78.217109,57.203998 78.192374,57.21349 78.164698,57.224109 78.054265,57.163202 77.905268,57.055144 76.206218,55.822932 73.381031,54.927768 69.969813,54.540784 68.38287,54.360755 67.526995,54.32039 65.298346,54.32047 63.345881,54.320539 62.863116,54.33608 61.619566,54.438894 57.427845,54.785454 54.076303,55.790672 52.004795,57.322625 51.76247,57.501833 51.231816,57.95477 51.096004,58.098319 51.04884,58.14817 50.99627,58.188958 50.979182,58.188958 50.962094,58.188958 50.792756,58.117468 50.602876,58.030092 Z"
   id="path23808" /></svg>
