<?xml version="1.0" encoding="UTF-8"?>
<svg xmlns="http://www.w3.org/2000/svg" xmlns:xlink="http://www.w3.org/1999/xlink" width="22px" height="22px" viewBox="0 0 22 22" version="1.1">
<g id="surface1">
<path style=" stroke:none;fill-rule:nonzero;fill:rgb(100%,67.45098%,20%);fill-opacity:1;" d="M 21.035156 14.214844 C 20.429688 17.839844 16.566406 20.261719 11.050781 20.261719 C 5.539062 20.261719 1.675781 17.839844 1.070312 14.214844 C 0.925781 13.359375 1.160156 9.511719 1.679688 8.765625 C 3.160156 6.644531 3.691406 14.765625 11.050781 14.765625 C 19.070312 14.765625 18.949219 6.644531 20.429688 8.765625 C 20.953125 9.511719 21.179688 13.359375 21.035156 14.214844 "/>
<path style=" stroke:none;fill-rule:nonzero;fill:rgb(54.117647%,29.411765%,21.960784%);fill-opacity:1;" d="M 11.050781 11.792969 C 9.214844 11.792969 7.726562 11.386719 7.726562 10.886719 C 7.726562 10.382812 9.214844 9.976562 11.050781 9.976562 C 12.890625 9.976562 14.378906 10.382812 14.378906 10.886719 C 14.378906 11.386719 12.890625 11.792969 11.050781 11.792969 M 11.050781 4.046875 C 5.652344 4.046875 1.269531 6.703125 1.269531 9.976562 C 1.269531 13.253906 5.652344 15.902344 11.050781 15.902344 C 16.457031 15.902344 20.835938 13.253906 20.835938 9.976562 C 20.835938 6.703125 16.457031 4.046875 11.050781 4.046875 "/>
<path style=" stroke:none;fill-rule:nonzero;fill:rgb(54.117647%,29.411765%,21.960784%);fill-opacity:1;" d="M 1.574219 9.042969 C 1.199219 9.648438 1.039062 12.226562 1.851562 13.429688 C 3.089844 15.273438 3.691406 14.335938 4.597656 14.613281 C 5.953125 15.03125 6.054688 16.097656 7.125 16.632812 C 8.332031 17.238281 9.03125 17.0625 10.75 16.632812 C 13.171875 16.027344 14.710938 17.265625 16.195312 16.632812 C 17.417969 16.117188 18.113281 14.238281 18.792969 14.011719 C 20.949219 13.292969 21.40625 9.886719 19.800781 8.488281 C 19.296875 9.546875 16.824219 13.355469 15.238281 13.53125 C 13.648438 13.707031 8.886719 14.113281 6.871094 13.078125 C 4.851562 12.046875 2.8125 10.761719 2.558594 10.40625 C 2.304688 10.054688 1.574219 9.042969 1.574219 9.042969 "/>
<path style=" stroke:none;fill-rule:nonzero;fill:rgb(95.686275%,56.470588%,4.705882%);fill-opacity:1;" d="M 11.050781 8.617188 C 8.878906 8.617188 7.117188 9.328125 7.117188 10.203125 C 7.117188 10.546875 7.390625 10.863281 7.839844 11.121094 C 7.769531 11.042969 7.726562 10.964844 7.726562 10.886719 C 7.726562 10.382812 9.214844 9.976562 11.050781 9.976562 C 12.890625 9.976562 14.378906 10.382812 14.378906 10.886719 C 14.378906 10.964844 14.335938 11.042969 14.265625 11.121094 C 14.71875 10.863281 14.988281 10.546875 14.988281 10.203125 C 14.988281 9.328125 13.226562 8.617188 11.050781 8.617188 "/>
<path style=" stroke:none;fill-rule:nonzero;fill:rgb(95.686275%,67.058824%,72.941176%);fill-opacity:1;" d="M 3.136719 11.085938 C 2.921875 11.085938 2.710938 10.972656 2.601562 10.765625 C 2.445312 10.46875 2.558594 10.101562 2.855469 9.945312 L 4.191406 9.242188 C 4.488281 9.085938 4.851562 9.195312 5.007812 9.492188 C 5.164062 9.789062 5.050781 10.15625 4.753906 10.3125 L 3.417969 11.015625 C 3.328125 11.066406 3.230469 11.085938 3.136719 11.085938 "/>
<path style=" stroke:none;fill-rule:nonzero;fill:rgb(95.686275%,67.058824%,72.941176%);fill-opacity:1;" d="M 10.019531 15.597656 C 9.78125 15.597656 9.558594 15.460938 9.460938 15.226562 L 9.03125 14.1875 C 8.902344 13.882812 9.050781 13.53125 9.359375 13.402344 C 9.667969 13.273438 10.019531 13.421875 10.148438 13.730469 L 10.578125 14.761719 C 10.707031 15.074219 10.5625 15.425781 10.25 15.554688 C 10.175781 15.582031 10.097656 15.597656 10.019531 15.597656 "/>
<path style=" stroke:none;fill-rule:nonzero;fill:rgb(33.333333%,67.45098%,93.333333%);fill-opacity:1;" d="M 16.878906 13.175781 C 16.773438 13.175781 16.667969 13.152344 16.570312 13.097656 C 16.28125 12.925781 16.183594 12.550781 16.355469 12.265625 L 17.011719 11.15625 C 17.183594 10.871094 17.554688 10.777344 17.839844 10.941406 C 18.128906 11.113281 18.222656 11.488281 18.050781 11.773438 L 17.398438 12.882812 C 17.289062 13.070312 17.082031 13.175781 16.878906 13.175781 "/>
<path style=" stroke:none;fill-rule:nonzero;fill:rgb(95.686275%,67.058824%,72.941176%);fill-opacity:1;" d="M 17.882812 8.683594 C 17.558594 8.683594 17.292969 8.40625 17.28125 8.078125 C 17.269531 7.742188 17.53125 7.453125 17.867188 7.441406 L 18.566406 7.410156 C 18.910156 7.410156 19.183594 7.65625 19.199219 7.992188 C 19.207031 8.328125 18.945312 8.628906 18.609375 8.636719 L 17.910156 8.683594 Z M 17.882812 8.683594 "/>
<path style=" stroke:none;fill-rule:nonzero;fill:rgb(95.686275%,67.058824%,72.941176%);fill-opacity:1;" d="M 12.035156 6.296875 C 11.777344 6.296875 11.542969 6.128906 11.457031 5.871094 C 11.359375 5.558594 11.535156 5.214844 11.855469 5.113281 L 12.332031 4.964844 C 12.65625 4.859375 12.992188 5.042969 13.089844 5.355469 C 13.191406 5.675781 13.015625 6.015625 12.699219 6.117188 L 12.222656 6.269531 C 12.160156 6.289062 12.097656 6.296875 12.035156 6.296875 "/>
<path style=" stroke:none;fill-rule:nonzero;fill:rgb(53.333333%,78.823529%,97.647059%);fill-opacity:1;" d="M 8.683594 7.28125 C 8.59375 7.28125 8.5 7.257812 8.414062 7.214844 L 7.957031 6.988281 C 7.664062 6.839844 7.539062 6.472656 7.6875 6.179688 C 7.839844 5.878906 8.203125 5.757812 8.5 5.90625 L 8.953125 6.136719 C 9.253906 6.28125 9.371094 6.644531 9.222656 6.945312 C 9.117188 7.15625 8.902344 7.28125 8.683594 7.28125 "/>
<path style=" stroke:none;fill-rule:nonzero;fill:rgb(53.333333%,78.823529%,97.647059%);fill-opacity:1;" d="M 13.949219 14.96875 C 13.859375 14.96875 13.769531 14.949219 13.683594 14.90625 L 13.230469 14.675781 C 12.929688 14.527344 12.808594 14.164062 12.957031 13.871094 C 13.105469 13.570312 13.46875 13.445312 13.769531 13.597656 L 14.222656 13.820312 C 14.523438 13.96875 14.644531 14.332031 14.496094 14.632812 C 14.390625 14.84375 14.175781 14.96875 13.949219 14.96875 "/>
<path style=" stroke:none;fill-rule:nonzero;fill:rgb(33.333333%,67.45098%,93.333333%);fill-opacity:1;" d="M 6.035156 13.628906 C 5.957031 13.628906 5.878906 13.617188 5.796875 13.582031 C 5.492188 13.453125 5.347656 13.097656 5.480469 12.789062 L 5.707031 12.261719 C 5.839844 11.953125 6.195312 11.8125 6.503906 11.945312 C 6.808594 12.074219 6.953125 12.433594 6.816406 12.738281 L 6.59375 13.269531 C 6.492188 13.496094 6.269531 13.628906 6.035156 13.628906 "/>
<path style=" stroke:none;fill-rule:nonzero;fill:rgb(33.333333%,67.45098%,93.333333%);fill-opacity:1;" d="M 15.0625 7.910156 C 14.828125 7.910156 14.609375 7.773438 14.507812 7.546875 C 14.375 7.242188 14.515625 6.882812 14.820312 6.75 L 15.21875 6.574219 C 15.53125 6.441406 15.882812 6.578125 16.019531 6.882812 C 16.152344 7.191406 16.011719 7.546875 15.707031 7.683594 L 15.304688 7.859375 C 15.226562 7.890625 15.144531 7.910156 15.0625 7.910156 "/>
<path style=" stroke:none;fill-rule:nonzero;fill:rgb(33.333333%,67.45098%,93.333333%);fill-opacity:1;" d="M 5.234375 7.886719 C 5.183594 7.886719 5.140625 7.878906 5.09375 7.867188 L 4.765625 7.796875 C 4.441406 7.71875 4.238281 7.394531 4.3125 7.070312 C 4.386719 6.742188 4.710938 6.539062 5.035156 6.617188 L 5.367188 6.6875 C 5.691406 6.765625 5.894531 7.089844 5.820312 7.414062 C 5.753906 7.695312 5.503906 7.886719 5.234375 7.886719 "/>
</g>
</svg>
