<?xml version="1.0" encoding="UTF-8" standalone="no"?>
<!-- Generator: Adobe Illustrator 25.2.3, SVG Export Plug-In . SVG Version: 6.00 Build 0)  -->

<svg
   version="1.1"
   id="Layer_2"
   x="0px"
   y="0px"
   viewBox="0 0 128 112"
   xml:space="preserve"
   sodipodi:docname="destiny.svg"
   inkscape:version="1.2.2 (b0a8486541, 2022-12-01)"
   width="128"
   height="112"
   xmlns:inkscape="http://www.inkscape.org/namespaces/inkscape"
   xmlns:sodipodi="http://sodipodi.sourceforge.net/DTD/sodipodi-0.dtd"
   xmlns="http://www.w3.org/2000/svg"
   xmlns:svg="http://www.w3.org/2000/svg"><defs
   id="defs9627"><linearGradient
     id="IconifyId17ecdb2904d178eab19914"
     gradientUnits="userSpaceOnUse"
     x1="87.615997"
     y1="21.040001"
     x2="41.548"
     y2="138.084"><stop
       offset="0"
       stop-color="#865e3c"
       id="stop14467" /><stop
       offset=".46"
       stop-color="#630d0d"
       id="stop14469" /><stop
       offset="1"
       stop-color="#4b0404"
       id="stop14471" /></linearGradient><linearGradient
     id="IconifyId17ecdb2904d178eab19915"
     gradientUnits="userSpaceOnUse"
     x1="8.8590002"
     y1="120.137"
     x2="47.171001"
     y2="77.536003"><stop
       offset="0"
       stop-color="#63452c"
       id="stop14476" /><stop
       offset=".612"
       stop-color="#630d0d"
       stop-opacity=".192"
       id="stop14478" /><stop
       offset=".757"
       stop-color="#4b0404"
       stop-opacity="0"
       id="stop14480" /></linearGradient><linearGradient
     id="IconifyId17ecdb2904d178eab19916"
     gradientUnits="userSpaceOnUse"
     x1="99.553001"
     y1="66.702003"
     x2="74.778"
     y2="11.745"><stop
       offset="0"
       stop-color="#865e3c"
       id="stop14485" /><stop
       offset=".442"
       stop-color="#630d0d"
       id="stop14487" /><stop
       offset="1"
       stop-color="#63452c"
       id="stop14489" /></linearGradient><linearGradient
     id="IconifyId17ecdb2904d178eab19917"
     gradientUnits="userSpaceOnUse"
     x1="37.501999"
     y1="104.545"
     x2="47.501999"
     y2="50.294998"><stop
       offset="0"
       stop-color="#630d0d"
       id="stop14494" /><stop
       offset="1"
       stop-color="#4b0404"
       stop-opacity="0"
       id="stop14496" /></linearGradient><linearGradient
     id="IconifyId17ecdb2904d178eab19918"
     gradientUnits="userSpaceOnUse"
     x1="41.731998"
     y1="20.416"
     x2="70.781998"
     y2="20.416"><stop
       offset="0"
       stop-color="#630d0d"
       id="stop14501" /><stop
       offset="1"
       stop-color="#4b0404"
       stop-opacity="0"
       id="stop14503" /></linearGradient><linearGradient
     id="IconifyId17ecdb2904d178eab19919"
     gradientUnits="userSpaceOnUse"
     x1="87.261002"
     y1="76.607002"
     x2="121.616"
     y2="90.766998"><stop
       offset="0"
       stop-color="#865e3c"
       id="stop14508" /><stop
       offset=".25"
       stop-color="#630d0d"
       id="stop14510" /><stop
       offset=".566"
       stop-color="#63452c"
       id="stop14512" /></linearGradient><linearGradient
     id="IconifyId17ecdb2904d178eab19920"
     gradientUnits="userSpaceOnUse"
     x1="104.646"
     y1="123.357"
     x2="97.606003"
     y2="95.586998"><stop
       offset="0"
       stop-color="#63452c"
       id="stop14517" /><stop
       offset=".808"
       stop-color="#630d0d"
       stop-opacity=".192"
       id="stop14519" /><stop
       offset="1"
       stop-color="#4b0404"
       stop-opacity="0"
       id="stop14521" /></linearGradient></defs><sodipodi:namedview
   id="namedview9625"
   pagecolor="#ffffff"
   bordercolor="#000000"
   borderopacity="0.25"
   inkscape:showpageshadow="2"
   inkscape:pageopacity="0.0"
   inkscape:pagecheckerboard="0"
   inkscape:deskcolor="#d1d1d1"
   showgrid="false"
   inkscape:zoom="4.2813106"
   inkscape:cx="74.509894"
   inkscape:cy="65.984467"
   inkscape:window-width="1920"
   inkscape:window-height="999"
   inkscape:window-x="0"
   inkscape:window-y="0"
   inkscape:window-maximized="1"
   inkscape:current-layer="Layer_2" />
<path
   style="fill:#ac5811;fill-opacity:1"
   d="M 97.23,57 63.93,63.86 6.35,62.48 C 6.35,62.48 3.22,79.13 14.77,94.41 24.18,106.85 41.37,112.1 67.49,111.68 94.4,111.25 111.32,101.12 118.05,87.32 126.08,70.87 117.79,50.92 117.79,50.92 Z"
   id="path9580" />
<path
   style="fill:#ac5811;fill-opacity:1"
   d="M 41.53,43.69 43.63,62.11 50.43,59.02 C 50.43,59.02 52.41,54.55 64.28,54.32 77.01,54.07 79.24,58.4 79.24,58.4 79.24,58.4 95.31,48.76 94.57,47.89 93.83,47.02 70.96,36.15 70.96,36.15 70.96,36.15 41.78,43.31 41.53,43.69 Z"
   id="path9582" />
<path
   style="fill:#f29f58;fill-opacity:1"
   d="M 115.09,38.25 C 107.85,29.47 94.32,17.73 61.19,17.73 39.55,17.73 27.07,25.4 17.92,33.8 8.77,42.2 0.9,58.55 4.57,66.06 7.04,71.13 9.39,70.14 11.62,74.34 13.85,78.54 15.7,83.74 21.26,87.07 26.82,90.4 33.25,90.9 37.33,92.51 41.41,94.12 48.95,99.06 60.33,99.31 71.83,99.56 78.01,95.23 84.44,93.62 90.87,92.01 99.52,91.77 106.2,88.3 112.88,84.84 113.37,78.9 116.83,75.07 120.29,71.24 123.14,69.26 123.88,65.67 124.62,62.08 122.63,47.39 115.09,38.25 Z M 63.29,60.01 C 53.89,60.13 46.28,57.96 46.48,52.47 46.73,45.29 59.95,44.03 64.16,43.94 69.72,43.82 81.8,44.89 82.15,51.4 82.48,57.77 72.69,59.88 63.29,60.01 Z"
   id="path9584" />
















<path
   style="fill:#d27133;fill-opacity:1"
   d="M 92.7,86.98 C 92.85,89.47 96.28,89.59 100.53,88.07 104.78,86.55 106.96,84.39 105.51,82.49 103.75,80.18 99.32,83.7 97.98,84.07 96.64,84.43 92.52,84.01 92.7,86.98 Z"
   id="path9618" />
<path
   style="fill:#d27133;fill-opacity:1"
   d="M 59.44,91.53 C 63.14,91.78 68.97,90.07 69.27,93.17 69.57,96.27 63.75,97.18 57.25,96.51 50.79,95.85 46.87,94.51 47.23,91.23 47.6,87.95 52.21,91.05 59.44,91.53 Z"
   id="path9620" />
<path
   style="fill:#d27133;fill-opacity:1"
   d="M 9.85,65.25 C 9.1,66.6 9.91,67.86 11.12,68.71 12.33,69.56 13.79,70.83 15.37,73.32 16.95,75.81 18.11,79.8 21.56,82.97 25.2,86.31 28.72,86.25 30.79,86.92 32.86,87.59 36.05,88.72 37.83,88.68 40.62,88.62 40.14,86.13 38.92,84.98 37.7,83.83 34.37,82.73 31.33,81.64 29.31,80.91 27.11,79.94 23.44,75.21 20.71,71.69 19.19,69.75 16.16,67.44 14.14,65.9 10.82,63.49 9.85,65.25 Z"
   id="path9622" />
<g
   id="SVGRepo_bgCarrier"
   stroke-width="0"
   transform="matrix(0.33775485,0,0,0.33775485,421.56261,348.88928)" /><g
   id="SVGRepo_tracerCarrier"
   stroke-linecap="round"
   stroke-linejoin="round"
   transform="matrix(0.33775485,0,0,0.33775485,421.56261,348.88928)" /><path
   d="M 100.27286,59.443425 C 100.27286,59.443425 96.17444,61.511699 99.348345,65.085914 101.75974,67.811848 107.27832,67.25904 109.53722,65.724511 111.01457,64.723728 111.453,62.95092 110.9002,62.054982 110.33785,61.159044 100.27286,59.443425 100.27286,59.443425 Z"
   fill="#cf701e"
   id="path19312"
   style="stroke-width:0.953127" /><path
   d="M 104.4952,51.370462 C 104.4952,51.370462 106.06785,51.599215 108.0027,52.762026 110.2616,54.115458 112.62535,57.565766 112.44426,60.377482 112.26316,63.189199 109.81364,64.456855 106.83035,64.504512 103.84708,64.552169 100.93052,64.390135 100.38724,62.846075 99.843965,61.302015 104.4952,51.370462 104.4952,51.370462 Z"
   fill="#593329"
   id="path19344"
   style="stroke-width:0.953127" /><path
   d="M 102.11239,52.314057 C 101.64537,52.962179 100.4349,54.944677 100.02505,57.47999 99.615215,60.015296 99.891625,62.912795 100.79708,63.417946 101.70255,63.913572 106.68739,59.614983 106.95426,59.157483 107.23067,58.699989 105.36254,51.770774 104.77161,51.456244 104.18067,51.141715 102.70333,51.503901 102.11239,52.314057 Z"
   fill="#925849"
   id="path19346"
   style="stroke-width:0.953127" /><path
   d="M 69.970685,72.806707 C 69.970685,72.806707 68.270305,74.507085 70.201875,75.842031 72.133445,77.176977 74.333495,77.631901 76.406765,77.40071 78.480035,77.169519 79.897015,75.51389 79.897015,75.51389 Z"
   fill="#cf701e"
   id="path19310"
   style="stroke-width:0.745781" /><path
   d="M 69.239825,71.814818 C 69.239825,71.814818 68.814725,74.648784 71.932085,75.185742 75.049445,75.715248 77.637305,76.423738 78.987165,76.14034 80.337025,75.856947 81.679425,74.052161 81.821125,72.739589 81.962825,71.427012 82.037395,69.532733 81.821125,69.018143 81.254335,67.65337 78.629185,63.917014 77.353905,63.521749 76.637955,63.305474 75.959295,63.424799 75.959295,63.424799 Z"
   fill="#593329"
   id="path19340"
   style="stroke-width:0.745781" /><path
   d="M 71.260885,66.847924 C 69.866275,68.391693 69.150325,70.621571 69.224905,71.799902 69.299485,72.911115 74.587065,72.426358 75.213515,72.04601 75.839975,71.665661 77.204745,69.965288 77.249495,69.398492 77.294245,68.831701 76.861695,67.056747 76.787115,65.96045 76.712535,64.864154 76.682705,63.372592 76.078625,63.409883 75.474545,63.447174 73.244655,64.655337 71.260885,66.847924 Z"
   fill="#925849"
   id="path19342"
   style="stroke-width:0.745781" /><path
   d="M 73.035586,89.661627 C 72.13704,89.378304 71.18994,88.042641 70.963287,85.185128 70.647575,81.113378 73.650801,79.98818 73.650801,79.98818 73.650801,79.98818 77.228756,79.041073 79.746295,78.142537 82.085715,77.308758 83.769471,76.240227 83.769471,76.240227 83.769471,76.240227 83.996124,71.877058 85.445122,70.589963 86.902205,69.302868 89.468297,69.416197 92.325804,69.748089 95.175234,70.079981 99.765064,71.982291 99.093174,73.714606 98.421304,75.446923 97.636094,77.179239 94.900004,78.749656 92.163914,80.311979 90.204935,81.769066 88.804509,82.999497 87.404084,84.238021 84.837992,85.79225 80.588163,87.362666 76.338315,88.933084 74.33078,90.066375 73.035586,89.661627 Z"
   fill="#ffc86e"
   id="path19292"
   style="stroke-width:0.809494" /><path
   d="M 42.286366,81.553261 C 42.286366,81.553261 41.708559,84.913431 46.242121,86.140161 53.798056,88.175811 54.580318,83.588921 54.580318,83.588921 Z"
   fill="#cf701e"
   id="path19308"
   style="stroke-width:0.888934" /><path
   d="M 45.779875,74.672911 C 45.468748,75.037381 41.041859,78.628671 41.041859,78.628671 41.041859,78.628671 41.201867,81.757711 42.188583,82.486641 43.1753,83.215561 46.25101,84.255621 48.233332,84.673421 50.215654,85.091211 53.75361,85.562351 54.642543,85.197891 55.531477,84.833421 56.464857,82.904441 56.518193,80.406531 56.571529,77.908631 55.682596,76.041871 54.695879,74.895151 53.709163,73.748421 52.918012,73.321731 52.918012,73.321731 Z"
   fill="#593329"
   id="path19336"
   style="stroke-width:0.888934" /><path
   d="M 51.664616,79.357591 C 52.242423,78.708671 52.918012,73.312841 52.918012,73.312841 52.918012,73.312841 48.908921,70.237131 47.237726,70.032681 45.566531,69.828221 43.593098,69.979341 43.015292,70.601601 42.446374,71.223851 40.206261,73.463961 40.410716,74.921811 40.615171,76.379671 41.03297,78.619781 41.03297,78.619781 41.03297,78.619781 50.464555,80.717661 51.664616,79.357591 Z"
   fill="#925849"
   id="path19338"
   style="stroke-width:0.888934" /><path
   d="M 25.425401,58.536993 C 25.425401,58.536993 23.464108,58.993883 23.664694,60.297703 23.865281,61.601513 26.08288,65.713543 29.604293,65.256653 33.125706,64.799763 38.686418,60.754593 38.686418,59.183333 38.686418,57.612063 35.878203,55.528193 35.878203,55.528193 Z"
   fill="#cf701e"
   id="path19306"
   style="stroke-width:1.11437" /><path
   d="M 28.813089,54.224383 C 28.813089,54.224383 24.61191,55.260743 24.344461,56.698283 24.088156,58.135823 24.689916,59.584503 26.127455,60.955183 27.564994,62.325853 28.612503,63.763393 29.71573,63.629673 30.830101,63.495943 33.760897,60.888323 34.674682,60.041393 35.588466,59.194473 36.89228,57.690073 36.7697,56.453123 36.647119,55.216173 36.112221,53.968073 34.942131,52.987423 33.783185,52.006783 28.813089,54.224383 28.813089,54.224383 Z"
   fill="#593329"
   id="path19332"
   style="stroke-width:1.11437" /><path
   d="M 29.860598,50.502383 C 27.899305,50.546953 26.394904,52.920563 25.748569,53.767483 25.09109,54.614413 23.987862,56.642563 24.444754,56.965733 24.901646,57.288903 26.796077,57.489483 27.709862,58.080103 28.623646,58.670723 29.994323,59.584503 31.041832,58.737583 32.089341,57.890663 33.003125,55.539333 33.526879,54.759273 34.050634,53.979213 34.964418,52.998573 34.964418,52.998573 34.964418,52.998573 32.991981,50.435513 29.860598,50.502383 Z"
   fill="#925849"
   id="path19334"
   style="stroke-width:1.11437" /><path
   d="M 31.317021,36.931953 C 31.317021,36.931953 29.742758,37.498303 29.800353,38.506213 29.857948,39.514123 30.251513,41.376363 32.276937,43.344193 34.32156,45.331223 37.287702,45.878373 39.985067,45.148833 42.682433,44.419303 44.650258,42.393873 44.429478,39.696513 44.208698,36.999143 41.616926,34.916123 41.616926,34.916123 Z"
   fill="#cf701e"
   id="path19304"
   style="stroke-width:0.959917" /><path
   d="M 29.704361,37.143133 C 29.704361,37.143133 29.320394,37.728683 30.049931,38.851783 30.779468,39.974883 32.209743,41.318773 34.350357,41.942713 36.490971,42.557063 38.007639,43.401793 39.409118,43.238603 40.820195,43.065823 43.575158,41.942713 43.680748,38.064653 43.795938,34.186593 43.008808,32.381943 41.319351,30.692493 39.629898,29.003043 38.410804,29.291013 38.410804,29.291013 Z"
   fill="#593329"
   id="path19328"
   style="stroke-width:0.959917" /><path
   d="M 30.193919,33.553043 C 29.59877,34.551363 29.157209,37.795873 29.886745,38.525413 30.616282,39.254953 35.0031,39.302943 36.155,39.178153 37.316499,39.053363 41.10817,37.267923 41.165765,35.914443 41.22336,34.560963 40.493823,32.765913 40.493823,32.093973 40.493823,31.422033 41.33855,29.847763 39.03475,29.281413 36.73095,28.715063 31.422612,31.470023 30.193919,33.553043 Z"
   fill="#925849"
   id="path19330"
   style="stroke-width:0.959917" /><path
   d="M 58.3002,30.228919 C 58.3002,30.228919 58.205018,30.289489 58.066571,30.401977 57.659885,30.739441 56.881122,31.526856 57.183974,32.409453 57.590661,33.577597 59.970213,35.758131 62.306503,35.758131 64.642783,35.758131 65.906113,33.577597 66.312803,32.158519 66.719483,30.739441 66.511813,29.87415 66.511813,29.87415 Z"
   fill="#cf701e"
   id="path19302"
   style="stroke-width:0.865291" /><path
   d="M 58.966474,27.087911 C 58.966474,27.087911 56.889775,26.949465 56.734023,27.754186 56.57827,28.56756 57.036875,30.635606 57.746414,31.544162 58.455953,32.452718 60.584573,34.486153 62.713183,34.079466 64.841803,33.672779 66.105133,31.587427 66.459893,30.869235 66.780053,30.194307 67.126173,29.467463 66.520473,28.558907 65.906113,27.641698 58.966474,27.087911 58.966474,27.087911 Z"
   fill="#593329"
   id="path19320"
   style="stroke-width:0.865291" /><path
   d="M 62.055563,23.843069 C 60.290373,23.652705 56.033137,27.035994 56.794593,28.195484 57.642579,29.467463 57.789678,28.662742 60.125963,29.830885 62.055563,30.791358 62.894893,31.682609 64.106303,31.526856 65.317713,31.371104 66.762753,29.372281 66.511813,28.558907 66.260883,27.745533 64.443773,24.094003 62.055563,23.843069 Z"
   fill="#925849"
   id="path19322"
   style="stroke-width:0.865291" /><path
   d="M 87.884259,35.746818 C 87.884259,35.746818 80.336421,35.698795 80.47249,36.451178 80.616567,37.203561 81.272896,39.684818 83.2419,39.780871 85.210903,39.876917 87.74819,40.061009 88.96481,39.684818 90.18143,39.308626 93.559146,36.587247 93.559146,35.370627 93.559146,34.154007 92.198457,32.369101 92.198457,32.369101 Z"
   fill="#cf701e"
   id="path19300"
   style="stroke-width:0.800406" /><path
   d="M 83.658114,31.008408 79.816161,33.665759 C 79.816161,33.665759 79.672084,35.466673 80.47249,36.451178 81.272896,37.435676 81.505019,38.043983 85.258926,38.043983 89.012833,38.043983 92.526618,37.531722 93.182955,34.858366 93.839291,32.185006 92.686702,30.472136 91.982342,29.487635 91.277989,28.503134 83.658114,31.008408 83.658114,31.008408 Z"
   fill="#593329"
   id="path19324"
   style="stroke-width:0.800406" /><path
   d="M 83.706137,26.838288 C 82.8417,27.206476 80.800659,29.983887 80.328421,31.200506 79.856176,32.417124 79.752123,33.713784 79.816161,33.729792 80.592552,33.921889 85.16288,34.346105 87.179906,34.017938 89.196925,33.689772 90.83776,32.80132 91.494097,31.624721 92.014357,30.688246 91.974342,29.447615 91.974342,29.447615 91.974342,29.447615 90.605645,26.982362 88.724687,26.229979 86.851738,25.477596 84.034305,26.694215 83.706137,26.838288 Z"
   fill="#925949"
   id="path19326"
   style="stroke-width:0.800406" /><path
   d="M 98.090806,42.783034 C 98.281861,44.527446 100.73235,44.909556 102.68443,46.172178 104.6365,47.434799 105.95728,48.755568 107.1036,48.406686 108.24993,48.06611 109.8116,46.230324 109.4544,43.015623 108.99754,38.887181 106.41415,33.604105 102.80072,33.778546 100.61605,33.886534 100.9151,37.682707 100.9151,37.682707 100.9151,37.682707 97.974516,41.753001 98.090806,42.783034 Z"
   fill="#ffc86e"
   id="path19298"
   style="stroke-width:0.830673" /><path
   d="M 20.218322,37.834191 C 18.003791,37.380613 14.875434,42.176538 14.295121,43.764063 13.708137,45.351587 13.107812,49.220345 13.04111,50.987967 12.954396,53.182486 12.914375,55.2436 13.834871,56.917838 14.54192,58.211871 16.256181,58.93893 17.797013,57.604876 19.337846,56.270822 22.012624,52.615512 22.719673,52.101902 23.426722,51.588291 25.494506,50.907924 24.680732,47.546106 24.34722,46.172031 20.965392,43.330495 20.798635,42.943619 20.638549,42.563414 21.472333,38.094332 20.218322,37.834191 Z"
   fill="#ffc86e"
   id="path19294"
   style="stroke-width:0.667026" /><g
   id="SVGRepo_bgCarrier-9"
   stroke-width="0"
   transform="matrix(0.24566488,0,0,0.24566488,65.748921,32.389409)" /><g
   id="SVGRepo_tracerCarrier-1"
   stroke-linecap="round"
   stroke-linejoin="round"
   transform="matrix(0.24566488,0,0,0.24566488,65.748921,32.389409)" /></svg>
