<?xml version="1.0" encoding="UTF-8" standalone="no"?>
<!-- Generator: Adobe Illustrator 25.2.3, SVG Export Plug-In . SVG Version: 6.00 Build 0)  -->

<svg
   version="1.1"
   id="Layer_2"
   x="0px"
   y="0px"
   viewBox="0 0 128 112"
   xml:space="preserve"
   sodipodi:docname="foo.svg"
   inkscape:version="1.2.2 (b0a8486541, 2022-12-01)"
   width="128"
   height="112"
   xmlns:inkscape="http://www.inkscape.org/namespaces/inkscape"
   xmlns:sodipodi="http://sodipodi.sourceforge.net/DTD/sodipodi-0.dtd"
   xmlns="http://www.w3.org/2000/svg"
   xmlns:svg="http://www.w3.org/2000/svg"><defs
   id="defs49" /><sodipodi:namedview
   id="namedview47"
   pagecolor="#ffffff"
   bordercolor="#000000"
   borderopacity="0.25"
   inkscape:showpageshadow="2"
   inkscape:pageopacity="0.0"
   inkscape:pagecheckerboard="0"
   inkscape:deskcolor="#d1d1d1"
   showgrid="false"
   inkscape:zoom="5.6568543"
   inkscape:cx="21.213203"
   inkscape:cy="66.733202"
   inkscape:window-width="1920"
   inkscape:window-height="999"
   inkscape:window-x="0"
   inkscape:window-y="0"
   inkscape:window-maximized="1"
   inkscape:current-layer="Layer_2" />
<path
   id="rect1053"
   style="opacity:1;fill:#475f48;fill-opacity:1;stroke:#ff0809;stroke-width:0;stroke-dasharray:none"
   d="M 117.79688,50.919922 97.279297,57 64.046875,63.859375 61.369141,63.794922 V 87.679688 H 22.439453 V 101.67188 C 32.471265,108.90634 47.343434,112.00606 67.599609,111.67969 94.455202,111.24969 111.34221,101.12029 118.05859,87.320312 126.07236,70.870346 117.79687,50.919922 117.79688,50.919922 Z"
   sodipodi:nodetypes="cccccccccc" />
<path
   style="fill:#475f48;fill-opacity:1"
   d="M 41.53,43.69 43.037757,55.968291 50.43,59.02 C 50.43,59.02 52.41,54.55 64.28,54.32 77.01,54.07 79.24,58.4 79.24,58.4 79.24,58.4 95.31,48.76 94.57,47.89 93.83,47.02 70.96,36.15 70.96,36.15 70.96,36.15 41.78,43.31 41.53,43.69 Z"
   id="path4"
   sodipodi:nodetypes="cccccscc" />
<path
   id="path989"
   style="fill:#399d6e;fill-opacity:1"
   d="M 61.189453,17.730469 C 40.125921,17.730469 27.750932,24.999229 18.667969,33.132812 L 47.345703,49.708984 C 50.379899,44.952189 60.560501,44.016405 64.160156,43.939453 69.720151,43.819453 81.800391,44.890397 82.150391,51.400391 82.48039,57.770384 72.689053,59.879766 63.289062,60.009766 61.101573,60.037691 59.019311,59.936209 57.101562,59.703125 L 22.285156,87.646484 C 27.594975,90.46394 33.498432,90.997768 37.330078,92.509766 41.410074,94.119764 48.95009,99.060547 60.330078,99.310547 71.830067,99.560547 78.00946,95.229139 84.439453,93.619141 90.869447,92.009142 99.519225,91.770778 106.19922,88.300781 112.87921,84.840785 113.37008,78.900309 116.83008,75.070312 120.29007,71.240316 123.14086,69.259918 123.88086,65.669922 124.62086,62.079925 122.62984,47.389991 115.08984,38.25 107.84985,29.470009 94.31942,17.730469 61.189453,17.730469 Z" />
<path
   style="fill:#b04760;fill-opacity:1"
   d="M 57.92,22.3 C 59.68,23.81 61.7,22.51 63.06,20.73 64.42,18.95 64.34,16.73 63.2,15.88 62.06,15.02 60.2,15.31 58.42,17.38 57.3,18.68 56.42,21.02 57.92,22.3 Z"
   id="path8" />
<path
   style="fill:#b04760;fill-opacity:1"
   d="M 69.41,34.15 C 70.8,35.82 74.05,34.15 76.76,32.15 79.47,30.15 81.71,28.27 80.26,26.01 78.48,23.23 73.91,27.01 72.55,27.94 71.19,28.87 67.27,31.58 69.41,34.15 Z"
   id="path10" />
<path
   style="fill:#b04760;fill-opacity:1"
   d="M 83.76,31.08 C 84.25,33.45 87.04,33.36 90.47,32.44 93.9,31.51 96.06,30.74 95.45,28.2 94.78,25.42 90.47,26.87 88.47,27.3 86.47,27.73 83.22,28.47 83.76,31.08 Z"
   id="path12" />
<path
   style="fill:#b04760;fill-opacity:1"
   d="M 96.47,36.82 C 95.44,38.19 95.6,39.93 98.67,42 101.74,44.07 103.39,44.13 104.45,42.57 105.66,40.79 103.81,39.11 101.95,37.68 100.1,36.25 97.53,35.41 96.47,36.82 Z"
   id="path14" />
<path
   style="fill:#b04760;fill-opacity:1"
   d="M 89.75,45.21 C 88.68,47.06 90.75,48.76 93.75,50.71 96.61,52.57 98.92,54.41 100.39,51.78 101.75,49.35 98.18,47.43 96.32,46.36 94.46,45.29 91.32,42.5 89.75,45.21 Z"
   id="path16" />
<path
   style="fill:#b04760;fill-opacity:1"
   d="M 110.72,54.72 C 108.67,53.17 106.19,55.57 104.1,58.42 102.01,61.27 99.32,64.55 101.41,66.19 103.81,68.07 106.15,65.28 108.4,62.35 110.63,59.43 112.6,56.14 110.72,54.72 Z"
   id="path18" />
<path
   style="fill:#b04760;fill-opacity:1"
   d="M 110.17,68.55 C 111.42,70.43 113.96,69.17 116.45,67.62 118.94,66.07 120.65,63.92 119.52,61.91 118.39,59.9 115.26,62.11 113.6,63.19 111.93,64.29 108.88,66.62 110.17,68.55 Z"
   id="path20" />

<path
   style="fill:#b04760;fill-opacity:1"
   d="M 44.89,25.95 C 43.2,26.72 43.25,28.99 45.58,31.94 47.88,34.86 48.88,36.86 51.04,35.55 53.19,34.24 51.27,30.86 49.73,28.94 48.19,27.02 46.58,25.18 44.89,25.95 Z"
   id="path24" />



<path
   style="fill:#b04760;fill-opacity:1"
   d="M 43.72,71.92 C 41.45,73.05 43.15,76.29 44.93,79.37 46.71,82.45 47.28,84.23 49.63,83.09 51.98,81.96 50.03,78.48 48.82,76.13 47.6,73.78 45.98,70.79 43.72,71.92 Z"
   id="path32" />
<path
   style="fill:#b04760;fill-opacity:1"
   d="M 74.16,65.13 C 71.6,67.07 68.32,69.05 69.86,71.58 71.4,74.12 75.39,71.04 77.24,69.74 79.08,68.43 83,65.98 81.54,63.67 80.08,61.37 76.39,63.44 74.16,65.13 Z"
   id="path34" />
<path
   style="fill:#b04760;fill-opacity:1"
   d="M 82.23,76.5 C 82.23,79.34 84.46,79.04 87.84,79.34 91.22,79.65 94.23,79.73 94.14,76.96 94.06,74.5 91.22,74.42 88.3,74.35 85.83,74.29 82.23,73.64 82.23,76.5 Z"
   id="path36" />
<path
   style="fill:#b04760;fill-opacity:1"
   d="M 68.86,79.42 C 64.6,78.76 62.02,78.34 61.41,80.57 60.8,82.8 62.64,83.87 67.17,84.64 71.7,85.41 73.93,85.41 74.39,83.1 74.85,80.81 71.86,79.88 68.86,79.42 Z"
   id="path38" />
<path
   style="fill:#b79279"
   d="M 92.7,86.98 C 92.85,89.47 96.28,89.59 100.53,88.07 104.78,86.55 106.96,84.39 105.51,82.49 103.75,80.18 99.32,83.7 97.98,84.07 96.64,84.43 92.52,84.01 92.7,86.98 Z"
   id="path40" />
<path
   style="fill:#b79279"
   d="M 59.44,91.53 C 63.14,91.78 68.97,90.07 69.27,93.17 69.57,96.27 63.75,97.18 57.25,96.51 50.79,95.85 46.87,94.51 47.23,91.23 47.6,87.95 52.21,91.05 59.44,91.53 Z"
   id="path42" />

<path
   style="opacity:1;fill:#cdd896;fill-opacity:1;stroke:#ff9003;stroke-width:0;stroke-linejoin:round;stroke-dasharray:none;stroke-opacity:1;paint-order:normal"
   d="M 18.737984,33.08754 C 36.180872,33.305001 50.422963,46.970465 50.422963,46.970465 L 50.421085,59.086732 18.673331,47.613198 C 18.673331,47.613198 18.698392,41.107759 18.737984,33.08754 Z"
   id="path1112"
   sodipodi:nodetypes="ccccc" /></svg>
