<?xml version="1.0" encoding="UTF-8" standalone="no"?>
<!-- Generator: Adobe Illustrator 25.2.3, SVG Export Plug-In . SVG Version: 6.00 Build 0)  -->

<svg
   version="1.1"
   id="Layer_2"
   x="0px"
   y="0px"
   viewBox="0 0 128 112"
   xml:space="preserve"
   sodipodi:docname="loop.svg"
   inkscape:version="1.2.2 (b0a8486541, 2022-12-01)"
   width="128"
   height="112"
   xmlns:inkscape="http://www.inkscape.org/namespaces/inkscape"
   xmlns:sodipodi="http://sodipodi.sourceforge.net/DTD/sodipodi-0.dtd"
   xmlns="http://www.w3.org/2000/svg"
   xmlns:svg="http://www.w3.org/2000/svg"><defs
   id="defs49" /><sodipodi:namedview
   id="namedview47"
   pagecolor="#ffffff"
   bordercolor="#000000"
   borderopacity="0.25"
   inkscape:showpageshadow="2"
   inkscape:pageopacity="0.0"
   inkscape:pagecheckerboard="0"
   inkscape:deskcolor="#d1d1d1"
   showgrid="false"
   inkscape:zoom="4.2813106"
   inkscape:cx="36.43744"
   inkscape:cy="49.400761"
   inkscape:window-width="1920"
   inkscape:window-height="999"
   inkscape:window-x="0"
   inkscape:window-y="0"
   inkscape:window-maximized="1"
   inkscape:current-layer="Layer_2" />
<path
   style="fill:#077979;fill-opacity:1"
   d="M 97.23,57 63.93,63.86 6.35,62.48 C 6.35,62.48 3.22,79.13 14.77,94.41 24.18,106.85 41.37,112.1 67.49,111.68 94.4,111.25 111.32,101.12 118.05,87.32 126.08,70.87 117.79,50.92 117.79,50.92 Z"
   id="path2" />
<path
   style="fill:#066363;fill-opacity:1"
   d="M 41.53,43.69 43.63,62.11 50.43,59.02 C 50.43,59.02 52.41,54.55 64.28,54.32 77.01,54.07 79.24,58.4 79.24,58.4 79.24,58.4 95.31,48.76 94.57,47.89 93.83,47.02 70.96,36.15 70.96,36.15 70.96,36.15 41.78,43.31 41.53,43.69 Z"
   id="path4" />
<path
   style="fill:#0cc3c2;fill-opacity:1"
   d="M 115.09,38.25 C 107.85,29.47 94.32,17.73 61.19,17.73 39.55,17.73 27.07,25.4 17.92,33.8 8.77,42.2 0.9,58.55 4.57,66.06 7.04,71.13 9.39,70.14 11.62,74.34 13.85,78.54 15.7,83.74 21.26,87.07 26.82,90.4 33.25,90.9 37.33,92.51 41.41,94.12 48.95,99.06 60.33,99.31 71.83,99.56 78.01,95.23 84.44,93.62 90.87,92.01 99.52,91.77 106.2,88.3 112.88,84.84 113.37,78.9 116.83,75.07 120.29,71.24 123.14,69.26 123.88,65.67 124.62,62.08 122.63,47.39 115.09,38.25 Z M 63.29,60.01 C 53.89,60.13 46.28,57.96 46.48,52.47 46.73,45.29 59.95,44.03 64.16,43.94 69.72,43.82 81.8,44.89 82.15,51.4 82.48,57.77 72.69,59.88 63.29,60.01 Z"
   id="path6" />



















<g
   id="SVGRepo_bgCarrier"
   stroke-width="0"
   transform="translate(-174.60452,-14.465824)" /><g
   id="SVGRepo_tracerCarrier"
   stroke-linecap="round"
   stroke-linejoin="round"
   transform="translate(-174.60452,-14.465824)" /><path
   d="M 54.04322,38.442563 C 46.62322,19.242563 30.42322,6.182563 24.19322,4.232563 21.84322,3.492563 18.89322,3.422563 17.56322,5.582563 14.20322,11.032563 9.90322,28.532563 19.41322,53.362563 Z"
   fill="#ffc022"
   id="path2979"
   style="fill:#0cc3c2;fill-opacity:1" /><path
   d="M 36.44322,30.052563 C 37.98322,28.762563 38.73322,27.502563 37.04322,24.892563 34.42322,20.842563 29.71322,16.112563 27.88322,14.662563 24.88322,12.282563 22.56322,11.482563 21.67322,15.312563 20.02322,22.392563 20.15322,32.002563 21.92322,37.302563 22.54322,39.172563 24.46322,40.162563 25.94322,38.872563 Z"
   fill="#ffd1d1"
   id="path2981" /><path
   d="M 80.22322,25.062563 C 88.30322,12.652563 99.60322,4.312563 104.29322,2.822563 106.61322,2.082563 109.31322,2.202563 110.63322,4.372563 113.95322,9.822563 116.76322,26.612563 110.21322,50.122563 L 86.28322,38.582563 Z"
   fill="#ffc022"
   id="path2987"
   style="fill:#0cc3c2;fill-opacity:1" /><path
   d="M 97.87322,34.072563 C 100.30322,36.502563 102.28322,38.132563 103.71322,39.682563 104.66322,40.712563 106.40322,40.242563 106.68322,38.862563 109.13322,27.062563 108.35322,17.002563 106.68322,14.362563 105.88322,13.102563 104.39322,12.772563 103.03322,13.232563 100.59322,14.042563 94.37322,18.682563 89.98322,25.452563 89.47322,26.242563 89.66322,27.302563 90.44322,27.832563 92.02322,28.902563 94.78322,30.972563 97.87322,34.072563 Z"
   fill="#ffd1d1"
   id="path2989" /><path
   d="M 55.62677,75.150127 C 55.57677,72.070127 59.99677,70.600127 64.16677,70.530127 68.34677,70.460127 72.84677,71.820127 72.89677,74.900127 72.94677,77.980127 67.67677,82.030127 64.35677,82.030127 61.04677,82.030127 55.68677,78.220127 55.62677,75.150127 Z"
   fill="#000000"
   id="path2991"
   style="fill:#077979;fill-opacity:1" /><g
   fill="none"
   stroke="#9e9e9e"
   stroke-width="3"
   stroke-linecap="round"
   stroke-miterlimit="10"
   id="g3007"
   transform="matrix(0.78387643,0,0,0.79792505,14.169319,11.951737)"
   style="fill:#077979;fill-opacity:1;stroke:#077979;stroke-width:3.76417;stroke-dasharray:none;stroke-opacity:1"><path
     d="M 6.7,71.03 C 7.04,71.44 11.11,71.38 21.06,76.1"
     id="path2993"
     style="fill:#077979;fill-opacity:1;stroke:#077979;stroke-width:3.76417;stroke-dasharray:none;stroke-opacity:1" /><path
     d="M 2.9,82.86 C 2.9,82.86 9.32,80.62 20.36,82.58"
     id="path2995"
     style="fill:#077979;fill-opacity:1;stroke:#077979;stroke-width:3.76417;stroke-dasharray:none;stroke-opacity:1" /><path
     d="M 8.81,92.29 C 8.81,92.29 11.55,90.91 21.48,90.04"
     id="path2997"
     style="fill:#077979;fill-opacity:1;stroke:#077979;stroke-width:3.76417;stroke-dasharray:none;stroke-opacity:1" /><g
     id="g3005"
     style="fill:#077979;fill-opacity:1;stroke:#077979;stroke-width:3.76417;stroke-dasharray:none;stroke-opacity:1"><path
       d="M 120.87,67.51 C 120.87,67.51 117.46,67.84 106.93,73.85"
       id="path2999"
       style="fill:#077979;fill-opacity:1;stroke:#077979;stroke-width:3.76417;stroke-dasharray:none;stroke-opacity:1" /><path
       d="M 122.42,78.49 C 122.42,78.49 117.33,78.13 106.37,80.46"
       id="path3001"
       style="fill:#077979;fill-opacity:1;stroke:#077979;stroke-width:3.76417;stroke-dasharray:none;stroke-opacity:1" /><path
       d="M 120.45,89.05 C 120.45,89.05 115.62,87.34 105.67,86.8"
       id="path3003"
       style="fill:#077979;fill-opacity:1;stroke:#077979;stroke-width:3.76417;stroke-dasharray:none;stroke-opacity:1" /></g></g><path
   d="M 95.476448,64.45922 C 95.136448,58.94922 91.716448,55.91922 87.826448,55.91922 83.936448,55.91922 80.786448,59.79922 80.786448,64.57922 80.786448,69.35922 84.066448,73.28922 88.436448,73.04922 93.506448,72.75922 95.756448,68.95922 95.476448,64.45922 Z"
   fill="#000200"
   id="path3009"
   style="fill:#077979;fill-opacity:1" /><path
   d="M 45.386448,67.012252 C 46.166448,61.402252 43.806448,57.982252 39.896448,57.192252 35.986448,56.402252 32.636448,59.032252 31.666448,63.832252 30.686448,68.642252 32.566448,73.152252 37.006448,73.802252 42.156448,74.552252 44.746448,71.602252 45.386448,67.012252 Z"
   fill="#000200"
   id="path3011"
   style="fill:#077979;fill-opacity:1" /><path
   d="M 44.94677,82.560127 C 42.37677,84.230127 45.41677,88.100128 47.19677,89.410128 48.97677,90.720128 52.17677,92.330128 56.86677,91.850128 62.40677,91.290128 63.99677,87.160128 63.99677,87.160128 63.99677,87.160128 65.96677,91.760128 72.81677,91.950128 79.76677,92.140128 81.91677,88.380128 82.85677,87.260128 83.79677,86.130128 84.73677,83.220127 83.13677,82.100127 81.53677,80.970127 80.41677,82.380127 78.72677,84.730127 77.03677,87.080128 73.56677,88.390128 70.18677,86.790128 66.80677,85.190127 66.61677,79.750127 66.61677,79.750127 L 61.82677,80.030127 C 61.82677,80.030127 61.07677,84.720127 58.91677,86.220128 56.75677,87.720128 51.59677,88.100128 49.43677,84.810127 48.48677,83.350127 47.10677,81.150127 44.94677,82.560127 Z"
   fill="#000000"
   id="path3013"
   style="fill:#077979;fill-opacity:1" /></svg>
