<?xml version="1.0" encoding="UTF-8" standalone="no"?>
<!-- Generator: Adobe Illustrator 25.2.3, SVG Export Plug-In . SVG Version: 6.00 Build 0)  -->

<svg
   version="1.1"
   id="Layer_2"
   x="0px"
   y="0px"
   viewBox="0 0 200 112"
   xml:space="preserve"
   sodipodi:docname="pecker.svg"
   width="200"
   height="112"
   inkscape:version="1.2.2 (b0a8486541, 2022-12-01)"
   xmlns:inkscape="http://www.inkscape.org/namespaces/inkscape"
   xmlns:sodipodi="http://sodipodi.sourceforge.net/DTD/sodipodi-0.dtd"
   xmlns="http://www.w3.org/2000/svg"
   xmlns:svg="http://www.w3.org/2000/svg"><defs
   id="defs49"><inkscape:path-effect
     effect="spiro"
     id="path-effect71147"
     is_visible="true"
     lpeversion="1" /></defs><sodipodi:namedview
   id="namedview47"
   pagecolor="#ffffff"
   bordercolor="#000000"
   borderopacity="0.25"
   inkscape:showpageshadow="2"
   inkscape:pageopacity="0.0"
   inkscape:pagecheckerboard="0"
   inkscape:deskcolor="#d1d1d1"
   showgrid="false"
   inkscape:zoom="4.2813106"
   inkscape:cx="93.195761"
   inkscape:cy="64.583027"
   inkscape:window-width="1920"
   inkscape:window-height="999"
   inkscape:window-x="0"
   inkscape:window-y="0"
   inkscape:window-maximized="1"
   inkscape:current-layer="Layer_2" />






















<g
   id="g93982"
   transform="matrix(0.99999861,0,0,1.0000015,37.583424,-1.0144267)"><path
     style="fill:#fa1c1f;fill-opacity:1"
     d="M 97.23,57 63.93,63.860003 6.35,62.48 C 6.35,62.48 3.22,79.130003 14.77,94.410003 24.18,106.85 41.37,112.1 67.49,111.68 94.4,111.25 111.32,101.12 118.05,87.320003 126.08,70.870003 117.79,50.92 117.79,50.92 Z"
     id="path2" /><path
     style="fill:#ff9003;fill-opacity:1"
     d="M 41.53,43.69 43.63,62.11 50.43,59.02 C 50.43,59.02 52.41,54.55 64.28,54.32 77.01,54.07 79.24,58.4 79.24,58.4 79.24,58.4 95.31,48.76 94.57,47.89 93.83,47.02 70.96,36.15 70.96,36.15 70.96,36.15 41.78,43.31 41.53,43.69 Z"
     id="path4" /><path
     style="fill:#fa1c1f"
     d="M 97.738467,7.8137055 C 96.988467,10.763705 103.58847,17.133705 103.58847,17.133705 L 103.43847,19.533705 C 103.43847,19.533705 101.18847,25.383705 102.83847,27.473705 104.48847,29.573705 111.15847,31.373705 111.15847,31.373705 L 119.02846,39.313705 C 119.02846,39.313705 121.42846,42.383705 122.39846,43.363705 123.36846,44.333705 117.82847,51.303705 117.82847,51.303705 L 114.97846,73.783705 117.37846,86.003705 129.16846,84.883705 C 129.16846,84.883705 128.31846,82.563705 127.94846,81.433705 127.57847,80.313705 123.67846,76.863705 123.67846,76.863705 123.67846,76.863705 125.39846,74.993705 128.39846,74.843705 131.39846,74.693705 134.39846,75.963705 134.01847,74.843705 133.64846,73.723705 132.14846,71.393705 132.14846,71.393705 L 125.54847,68.773705 C 125.54847,68.773705 129.06846,66.603705 131.46846,65.703705 133.86846,64.803705 141.65846,62.853705 142.70846,62.483705 143.75846,62.113705 147.20846,63.003705 146.07847,61.063705 144.95846,59.113705 138.95846,59.113705 138.95846,59.113705 L 126.06846,60.313705 C 126.06846,60.313705 128.68846,57.543705 131.53846,55.513705 134.38846,53.493705 139.02846,50.193705 139.02846,50.193705 L 135.21846,49.063705 124.87846,52.733705 C 124.87846,52.733705 122.55846,54.303705 122.55846,53.253705 122.55846,52.203705 126.95846,50.433705 128.45846,47.133705 129.52846,44.773705 128.62846,43.733705 128.62846,43.733705 128.62846,43.733705 130.87846,42.613705 131.02846,39.083705 131.17846,35.563705 128.40846,31.813705 128.40846,31.813705 L 106.28846,9.1937055 C 106.28846,9.1937055 98.298467,5.6437055 97.738467,7.8137055 Z"
     id="path75340" /><path
     style="fill:#ff5f00"
     d="M 123.44846,53.503705 C 123.44846,53.503705 124.09846,54.073705 124.59846,55.123705 125.15846,56.303705 125.26847,56.873705 125.44846,57.123705 125.66846,57.433705 133.68846,50.773705 135.98846,50.373705 138.28846,49.973705 144.02846,54.073705 146.42846,54.473705 148.31846,54.783705 149.77846,54.373705 148.57847,52.423705 147.37846,50.473705 140.43846,44.733705 137.43846,44.983705 133.95846,45.273705 123.99846,53.103705 123.44846,53.503705 Z"
     id="path75356" /><path
     style="fill:#ff5f00"
     d="M 126.06846,60.303705 C 126.06846,60.303705 139.71846,55.083705 142.87846,55.733705 146.52846,56.483705 149.79847,61.453705 151.01847,62.723705 152.38846,64.143705 156.81846,68.823705 154.36846,69.713705 150.25846,71.223705 142.77846,61.873705 141.52846,61.273705 140.27846,60.673705 139.52846,61.023705 136.12846,61.573705 132.72846,62.123705 125.69846,64.223705 125.69846,64.223705 125.67846,64.233705 125.88846,62.723705 125.91846,62.103705 125.94846,61.503705 126.06846,60.303705 126.06846,60.303705 Z"
     id="path75358" /><path
     style="fill:#ff5f00"
     d="M 125.44846,68.273705 C 125.11846,68.603705 124.88846,70.733705 124.79847,71.223705 124.64846,72.023705 124.44846,73.323705 124.44846,73.323705 124.44846,73.323705 131.68846,73.473705 132.38846,73.773705 133.08846,74.073705 135.33846,76.393705 137.18846,78.023705 138.60846,79.263705 142.83846,83.373705 142.83846,83.373705 142.83846,83.373705 146.03846,89.723705 147.98846,89.773705 149.93846,89.823705 149.93846,87.123705 149.03846,84.673705 148.13846,82.223705 146.83846,78.073705 146.33846,77.583705 145.83846,77.083705 144.08846,74.583705 141.98846,72.483705 140.95846,71.453705 137.18846,68.183705 136.18846,68.033705 135.18846,67.873705 126.14846,67.573705 125.44846,68.273705 Z"
     id="path75360" /><path
     style="fill:#ff5f00"
     d="M 123.64846,76.643705 C 123.64846,76.643705 130.58846,77.713705 133.13846,79.963705 134.68846,81.333705 136.50846,85.233705 136.83846,88.453705 136.93846,89.463705 137.58846,95.593705 135.88846,95.843705 134.18846,96.093705 131.86846,92.623705 131.21846,90.823705 130.56846,89.023705 129.39846,85.853705 129.39846,85.853705 129.39846,85.853705 126.16846,83.923705 125.99846,83.853705 124.79847,83.383705 121.09846,83.303705 121.09846,83.303705 121.09846,83.303705 122.33846,81.063705 122.74846,79.903705 123.24846,78.493705 123.64846,76.643705 123.64846,76.643705 Z"
     id="path75362" /><path
     style="fill:#ff5f00"
     d="M 96.768467,15.283705 C 95.878457,16.223705 96.488467,19.733705 98.168457,22.033705 99.518467,23.883705 102.66846,27.083705 102.66846,27.083705 102.66846,27.083705 102.06846,22.933705 102.46847,22.033705 102.86847,21.133705 102.66846,19.233705 102.66846,19.233705 102.66846,19.233705 101.06846,17.783705 100.16846,17.033705 99.268467,16.283705 97.618467,14.383705 96.768467,15.283705 Z"
     id="path75370" /><path
     style="fill:#fa1c1f"
     d="M 11.919464,12.684944 C 16.719464,9.2849443 27.009464,5.5949443 28.009464,7.4849443 29.009464,9.3849443 19.419464,16.174944 19.419464,16.174944 19.419464,16.174944 22.119464,21.274944 22.119464,22.674944 22.119464,24.074944 22.219464,27.574944 20.619464,28.774944 19.019464,29.974944 7.429464,37.264944 7.429464,37.264944 7.429464,37.264944 7.339464,38.724944 6.929464,39.864944 6.129464,42.084944 4.929464,42.764944 4.929464,42.764944 L 4.229464,48.06494 8.129464,56.45494 15.619464,85.43494 11.219464,88.23494 C 11.219464,88.23494 4.129464,86.33494 2.529464,86.23494 0.92946397,86.13494 -1.970536,85.83494 -2.670536,86.13494 -3.370536,86.43494 -3.570536,82.63494 -3.570536,82.63494 -3.570536,82.63494 0.82946397,79.23494 0.72946397,78.33494 0.62946397,77.43494 -2.170536,77.36494 -3.670536,77.21494 -5.170536,77.06494 -8.990536,77.66494 -9.370536,77.06494 -9.750536,76.46494 -9.670536,74.21494 -8.170536,73.54494 -6.670536,72.87494 -1.570536,70.77494 -1.500536,70.17494 -1.430536,69.57494 -6.620536,68.50494 -9.970536,67.45494 -13.210536,66.43494 -14.970536,65.85494 -17.390536,65.23494 -19.130536,64.78494 -21.510536,64.86494 -21.510536,64.86494 L -17.910536,60.14494 -0.97053603,62.09494 C -0.97053603,62.09494 -8.910536,55.94494 -10.110536,54.82494 -11.310536,53.70494 -12.430536,52.50494 -12.430536,52.50494 -12.430536,52.50494 -11.010536,51.53494 -9.730536,51.83494 -8.450536,52.13494 -0.89053603,58.43494 -0.89053603,58.43494 -0.89053603,58.43494 -1.040536,56.03494 -0.44053603,54.98494 0.15946397,53.93494 0.82946397,53.71494 0.82946397,53.71494 0.82946397,53.71494 1.949464,54.61494 2.329464,54.08494 2.699464,53.56494 0.67946397,51.38494 -0.07053603,49.43494 -0.82053603,47.48494 -0.82053603,46.21494 -0.82053603,46.21494 -0.82053603,46.21494 -4.570536,45.31494 -5.170536,40.364944 -5.770536,35.414944 -0.15053603,32.124944 -0.15053603,32.124944 Z"
     id="path75338" /><path
     style="fill:#ffff00"
     d="M 115.09,38.250003 C 107.85,29.470003 94.319999,17.730006 61.189999,17.730006 39.549999,17.730006 27.069997,25.400003 17.919995,33.800003 8.7699945,42.200003 0.89999452,58.550003 4.5699945,66.060003 7.0399945,71.130003 9.3899945,70.140003 11.619995,74.340003 13.849995,78.540003 15.699995,83.740003 21.259995,87.070003 26.819997,90.400003 33.249999,90.900003 37.329999,92.510003 41.409999,94.120003 48.949999,99.06 60.329999,99.31 71.829999,99.56 78.009999,95.23 84.439999,93.620003 90.869999,92.010003 99.519999,91.770003 106.2,88.300003 112.88,84.840003 113.37,78.900003 116.83,75.070003 120.29,71.240003 123.14,69.260003 123.88,65.670003 124.62,62.080003 122.63,47.390003 115.09,38.250003 Z M 63.289999,60.010003 C 53.889999,60.130003 46.279999,57.960003 46.479999,52.470003 46.729999,45.290003 59.949999,44.030003 64.159999,43.940003 69.719999,43.820003 81.799999,44.890003 82.149999,51.400003 82.479999,57.770003 72.689999,59.880003 63.289999,60.010003 Z"
     id="path6" /><path
     style="fill:#fea8a6"
     d="M 57.966198,23.427525 C 59.726198,24.937525 61.746198,23.637525 63.106198,21.857525 64.466198,20.077525 64.386198,17.857525 63.246198,17.007525 62.106198,16.147525 60.246198,16.437525 58.466198,18.507525 57.346198,19.807525 56.466198,22.147525 57.966198,23.427525 Z"
     id="path86765" /><path
     style="fill:#ff5f00"
     d="M 107.70847,18.803705 C 107.75846,19.753705 105.25846,20.653705 104.55847,24.003705 103.85846,27.353705 103.80847,30.103705 109.50846,34.393705 115.20847,38.683705 122.39846,42.533705 127.24846,36.943705 132.09846,31.353705 129.84846,20.103705 120.74846,12.863705 113.35846,6.9837055 103.10846,5.3337055 98.768467,6.8637055 96.218467,7.7637055 100.76847,10.413705 103.41846,13.013705 106.52847,16.073705 107.65847,17.853705 107.70847,18.803705 Z"
     id="path75368" /><path
     style="fill:#93c9ef"
     d="M 69.456198,35.277525 C 70.846198,36.947525 74.096198,35.277525 76.806198,33.277525 79.516198,31.277525 81.756198,29.397525 80.306198,27.137525 78.526198,24.357525 73.956198,28.137525 72.596198,29.067525 71.236198,29.997525 67.316198,32.707525 69.456198,35.277525 Z"
     id="path86767" /><path
     style="fill:#ff9009"
     d="M 107.50846,22.603705 C 105.70847,22.903705 106.28846,25.763705 107.50846,28.303705 108.75846,30.903705 110.80847,32.053705 112.05847,31.003705 113.30847,29.953705 111.90847,27.653705 111.15847,26.303705 110.40847,24.953705 109.30847,22.303705 107.50846,22.603705 Z"
     id="path75372" /><path
     style="fill:#fdba02"
     d="M 83.806198,32.207525 C 84.296198,34.577525 87.086198,34.487525 90.516198,33.567525 93.946198,32.637525 96.106198,31.867525 95.496198,29.327525 94.826198,26.547525 90.516198,27.997525 88.516198,28.427525 86.516198,28.857525 83.266198,29.597525 83.806198,32.207525 Z"
     id="path86769" /><path
     style="fill:#a62616"
     d="M 105.88846,16.163705 C 105.18847,15.063705 102.97846,16.853705 102.03846,19.113705 100.93847,21.763705 100.93847,25.413705 102.38846,26.903705 103.83847,28.393705 102.48847,23.303705 103.83847,20.603705 104.95847,18.363705 106.58847,17.253705 105.88846,16.163705 Z"
     id="path75378" /><path
     style="fill:#fea8a6"
     d="M 96.516198,37.947525 C 95.486198,39.317525 95.646198,41.057525 98.716198,43.127525 101.7862,45.197525 103.4362,45.257525 104.4962,43.697525 105.7062,41.917525 103.8562,40.237525 101.9962,38.807525 100.1462,37.377525 97.576198,36.537525 96.516198,37.947525 Z"
     id="path86771" /><path
     style="fill:#ff5f00"
     d="M -22.450536,57.00494 C -23.860536,55.96494 -21.650536,52.90494 -17.800536,50.30494 -13.950536,47.70494 -11.650536,46.85494 -9.910536,47.15494 -8.160536,47.45494 -3.410536,50.50494 -1.320536,51.90494 0.46946397,53.10494 2.379464,54.10494 2.429464,54.40494 2.479464,54.70494 1.499464,54.49494 0.42946397,56.25494 -0.14053603,57.20494 -0.77053603,59.10494 -0.62053603,59.00494 -0.47053603,58.90494 -9.960536,53.08494 -10.760536,53.08494 -11.560536,53.08494 -15.760536,55.25494 -17.160536,55.75494 -18.550536,56.25494 -21.300536,57.85494 -22.450536,57.00494 Z"
     id="path75344" /><path
     style="fill:#ff5f00"
     d="M -30.220536,71.81494 C -29.850536,72.69494 -28.170536,72.91494 -25.020536,70.76494 -21.870536,68.61494 -17.680536,64.11494 -16.830536,63.87494 -15.980536,63.63494 -9.590536,64.77494 -6.090536,65.27494 -2.590536,65.77494 -0.54053603,66.27494 -0.54053603,66.27494 L -0.79053603,62.17494 C -0.79053603,62.17494 -10.680536,59.32494 -14.030536,58.92494 -17.380536,58.52494 -17.730536,57.92494 -19.580536,58.72494 -21.430536,59.52494 -25.630536,64.57494 -26.770536,65.96494 -27.910536,67.35494 -30.620536,70.87494 -30.220536,71.81494 Z"
     id="path75346" /><path
     style="fill:#ff5f00"
     d="M -9.980536,70.12494 C -12.180536,70.57494 -18.770536,75.97494 -19.970536,78.01494 -21.170536,80.06494 -23.970536,86.60494 -24.620536,89.05494 -25.270536,91.50494 -23.820536,91.55494 -22.320536,90.95494 -20.820536,90.35494 -17.020536,84.50494 -16.320536,83.51494 -15.620536,82.51494 -12.370536,79.91494 -11.370536,79.01494 -10.370536,78.11494 -7.370536,75.51494 -6.670536,75.36494 -5.970536,75.21494 1.319464,76.01494 1.669464,75.61494 2.019464,75.21494 1.519464,73.51494 0.96946397,72.56494 0.41946397,71.61494 -1.400536,70.54494 -1.400536,70.54494 -1.400536,70.54494 -8.290536,69.77494 -9.980536,70.12494 Z"
     id="path75348" /><path
     style="fill:#ff5f00"
     d="M 1.509464,79.36494 C -0.84053603,78.76494 -5.630536,80.36494 -6.980536,81.16494 -8.330536,81.96494 -9.780536,84.16494 -10.530536,87.41494 -11.280536,90.66494 -12.230536,96.10494 -11.480536,96.50494 -10.730536,96.90494 -7.780536,95.50494 -6.580536,92.70494 -5.380536,89.90494 -3.830536,87.05494 -2.630536,86.10494 -1.430536,85.15494 0.51946397,84.75494 2.269464,84.75494 4.019464,84.75494 6.169464,84.75494 6.169464,84.75494 6.169464,84.75494 4.569464,81.85494 4.219464,81.05494 3.859464,80.26494 2.979464,79.74494 1.509464,79.36494 Z"
     id="path75350" /><path
     style="fill:#dbdb00;fill-opacity:1"
     d="M 92.7,86.98 C 92.85,89.47 96.28,89.59 100.53,88.07 104.78,86.55 106.96,84.39 105.51,82.49 103.75,80.18 99.32,83.7 97.98,84.07 96.64,84.43 92.52,84.01 92.7,86.98 Z"
     id="path40" /><path
     style="fill:#fd5e5b"
     d="M 89.796198,46.337525 C 88.726198,48.187525 90.796198,49.887525 93.796198,51.837525 96.656198,53.697525 98.966198,55.537525 100.4362,52.907525 101.7962,50.477525 98.226198,48.557525 96.366198,47.487525 94.506198,46.417525 91.366198,43.627525 89.796198,46.337525 Z"
     id="path86773" /><path
     style="fill:#ff5f00"
     d="M 4.209464,12.364944 C -3.480536,17.214944 -7.810536,30.454944 -0.39053603,35.944944 7.699464,41.944944 18.849464,33.244944 23.739464,26.654944 28.629464,20.064944 31.029464,16.664944 29.539464,14.614944 28.049464,12.564944 20.849464,18.914944 20.849464,18.914944 20.849464,18.914944 21.499464,21.164944 21.399464,23.764944 21.299464,26.364944 21.099464,28.814944 19.949464,28.814944 18.799464,28.814944 18.899464,24.964944 17.799464,21.674944 16.699464,18.384944 15.549464,17.974944 15.599464,16.674944 15.649464,15.374944 21.449464,12.114944 22.919464,11.254944 26.089464,9.3849443 28.769464,7.7849443 27.489464,7.0349443 26.439464,6.3949443 15.659464,5.1549443 4.209464,12.364944 Z"
     id="path75364" /><path
     style="fill:#f47ba8"
     d="M 110.7662,55.847525 C 108.7162,54.297525 106.2362,56.697525 104.1462,59.547525 102.0562,62.397525 99.366198,65.677525 101.4562,67.317525 103.8562,69.197525 106.1962,66.407525 108.4462,63.477525 110.6762,60.557525 112.6462,57.267525 110.7662,55.847525 Z"
     id="path86775" /><path
     style="fill:#dbdb00;fill-opacity:1"
     d="M 59.44,91.53 C 63.14,91.78 68.97,90.07 69.27,93.17 69.57,96.27 63.75,97.18 57.25,96.51 50.79,95.85 46.87,94.51 47.23,91.23 47.6,87.95 52.21,91.05 59.44,91.53 Z"
     id="path42" /><path
     style="fill:#ff9003"
     d="M 0.75946397,30.544944 C 4.239464,30.134944 2.629464,26.664944 3.409464,23.844944 4.359464,20.394944 7.359464,18.494944 5.109464,16.554944 2.639464,14.414944 -0.14053603,18.564944 -1.040536,23.054944 -1.590536,25.804944 -1.790536,30.844944 0.75946397,30.544944 Z"
     id="path75366" /><path
     style="fill:#dbdb00;fill-opacity:1"
     d="M 9.85,65.25 C 9.1,66.6 9.91,67.86 11.12,68.71 12.33,69.56 13.79,70.83 15.37,73.32 16.95,75.81 18.11,79.8 21.56,82.97 25.2,86.31 28.72,86.25 30.79,86.92 32.86,87.59 36.05,88.72 37.83,88.68 40.62,88.62 40.14,86.13 38.92,84.98 37.7,83.83 34.37,82.73 31.33,81.64 29.31,80.91 27.11,79.94 23.44,75.21 20.71,71.69 19.19,69.75 16.16,67.44 14.14,65.9 10.82,63.49 9.85,65.25 Z"
     id="path44" /><path
     style="fill:#ffb502"
     d="M 110.2162,69.677525 C 111.4662,71.557525 114.0062,70.297525 116.4962,68.747525 118.9862,67.197525 120.6962,65.047525 119.5662,63.037525 118.4362,61.027525 115.3062,63.237525 113.6462,64.317525 111.9762,65.417525 108.9262,67.747525 110.2162,69.677525 Z"
     id="path86777" /><path
     style="fill:#a62616"
     d="M 17.299464,14.814944 C 16.519464,15.594944 17.649464,15.964944 18.299464,17.614944 18.949464,19.264944 19.499464,20.514944 19.849464,22.564944 20.119464,24.144944 19.899464,29.434944 20.999464,27.884944 22.099464,26.334944 22.319464,19.814944 20.849464,17.314944 19.539464,15.114944 18.189464,13.914944 17.299464,14.814944 Z"
     id="path75380" /><path
     style="fill:#f47ba8"
     d="M 29.5562,49.137525 C 25.6562,52.647525 24.5162,54.857525 26.0962,56.547525 27.6762,58.237525 30.4662,56.507525 34.2662,52.967525 38.0662,49.427525 39.0162,47.387525 37.4662,45.737525 35.6462,43.827525 32.1462,46.807525 29.5562,49.137525 Z"
     id="path86779" /><path
     style="fill:#ff9003"
     d="M 68.995048,45.978604 C 68.995048,45.978604 68.625048,39.678604 68.025048,37.958604 66.47505,33.558604 66.60505,25.968604 73.045048,26.418604 79.495048,26.868604 77.995048,34.138604 76.715048,38.038604 75.445048,41.938604 76.045048,46.128604 76.045048,46.128604 Z"
     id="path75334" /><path
     style="fill:#f47ba8"
     d="M 44.9362,27.077525 C 43.2462,27.847525 43.2962,30.117525 45.6262,33.067525 47.9262,35.987525 48.9262,37.987525 51.0862,36.677525 53.2362,35.367525 51.3162,31.987525 49.7762,30.067525 48.2362,28.147525 46.6262,26.307525 44.9362,27.077525 Z"
     id="path86781" /><path
     style="fill:#ff9003"
     d="M 57.90505,46.418604 C 57.97505,46.118604 57.53505,41.468604 57.97505,37.578604 58.41505,33.688604 60.52505,27.608604 54.52505,26.558604 48.52505,25.508604 46.00505,33.578604 48.47505,39.198604 50.94505,44.818604 51.07505,47.538604 51.07505,47.538604 Z"
     id="path75336" /><path
     style="fill:#fea8a6"
     d="M 18.2762,48.587525 C 16.5162,47.207525 14.8162,48.667525 12.2062,51.507525 9.5961997,54.347525 9.0961997,56.387525 10.8262,57.887525 12.5962,59.427525 15.0362,56.177525 16.2862,54.737525 17.8162,52.967525 20.4262,50.277525 18.2762,48.587525 Z"
     id="path86783" /><ellipse
     transform="rotate(-73.429719)"
     style="fill:#322d2e;stroke-width:1.00003"
     cx="-11.444999"
     cy="79.398636"
     rx="4.3201327"
     ry="3.3501027"
     id="ellipse75374" /><path
     style="fill:#fea8a6"
     d="M 24.4262,66.947525 C 23.6662,69.557525 26.1962,70.097525 28.8862,70.707525 31.5762,71.317525 35.0362,71.937525 35.4962,69.627525 35.9562,67.327525 33.7262,66.327525 30.6562,65.867525 27.5862,65.407525 25.1162,64.567525 24.4262,66.947525 Z"
     id="path86785" /><ellipse
     transform="rotate(-5.8428604)"
     style="fill:#322d2e;stroke-width:0.999995"
     cx="49.400978"
     cy="38.817562"
     rx="3.6399825"
     ry="4.3199792"
     id="ellipse75376" /><path
     style="fill:#93c9ef"
     d="M 20.6562,38.137525 C 18.4362,39.377525 19.8862,42.437525 20.5762,44.207525 21.2662,45.977525 22.4962,48.357525 24.5762,47.127525 26.6562,45.897525 25.2862,42.967525 24.6562,41.437525 23.8862,39.597525 22.7362,36.987525 20.6562,38.137525 Z"
     id="path86787" /><path
     style="fill:#93c9ef"
     d="M 43.7662,73.047525 C 41.4962,74.177525 43.1962,77.417525 44.9762,80.497525 46.7562,83.577525 47.3262,85.357525 49.6762,84.217525 52.0262,83.087525 50.0762,79.607525 48.8662,77.257525 47.6462,74.907525 46.0262,71.917525 43.7662,73.047525 Z"
     id="path86789" /><path
     style="fill:#fd5e5b"
     d="M 74.206198,66.257525 C 71.646198,68.197525 68.366198,70.177525 69.906198,72.707525 71.446198,75.247525 75.436198,72.167525 77.286198,70.867525 79.126198,69.557525 83.046198,67.107525 81.586198,64.797525 80.126198,62.497525 76.436198,64.567525 74.206198,66.257525 Z"
     id="path86791" /><path
     style="fill:#fea8a6"
     d="M 82.276198,77.627525 C 82.276198,80.467525 84.506198,80.167525 87.886198,80.467525 91.266198,80.777525 94.276198,80.857525 94.186198,78.087525 94.106198,75.627525 91.266198,75.547525 88.346198,75.477525 85.876198,75.417525 82.276198,74.767525 82.276198,77.627525 Z"
     id="path86793" /><path
     style="fill:#ffb502"
     d="M 68.906198,80.547525 C 64.646198,79.887525 62.066198,79.467525 61.456198,81.697525 60.846198,83.927525 62.686198,84.997525 67.216198,85.767525 71.746198,86.537525 73.976198,86.537525 74.436198,84.227525 74.896198,81.937525 71.906198,81.007525 68.906198,80.547525 Z"
     id="path86795" /></g></svg>
